%TF.GenerationSoftware,KiCad,Pcbnew,(6.0.8-1)-1*%
%TF.CreationDate,2022-10-18T13:45:01-04:00*%
%TF.ProjectId,SWD_pogoadapter,5357445f-706f-4676-9f61-646170746572,rev?*%
%TF.SameCoordinates,Original*%
%TF.FileFunction,Drillmap*%
%TF.FilePolarity,Positive*%
%FSLAX45Y45*%
G04 Gerber Fmt 4.5, Leading zero omitted, Abs format (unit mm)*
G04 Created by KiCad (PCBNEW (6.0.8-1)-1) date 2022-10-18 13:45:01*
%MOMM*%
%LPD*%
G01*
G04 APERTURE LIST*
%ADD10C,0.200000*%
%ADD11C,0.040000*%
G04 APERTURE END LIST*
D10*
D11*
X14229400Y-9962200D02*
X14269400Y-10002200D01*
X14269400Y-9962200D02*
X14229400Y-10002200D01*
X14354724Y-10253022D02*
X14394724Y-10293022D01*
X14394724Y-10253022D02*
X14354724Y-10293022D01*
X14366550Y-9828900D02*
X14406550Y-9868900D01*
X14406550Y-9828900D02*
X14366550Y-9868900D01*
X14394500Y-9657400D02*
X14434500Y-9697400D01*
X14434500Y-9657400D02*
X14394500Y-9697400D01*
X14394500Y-10482900D02*
X14434500Y-10522900D01*
X14434500Y-10482900D02*
X14394500Y-10522900D01*
X14436350Y-8289450D02*
X14476350Y-8329450D01*
X14476350Y-8289450D02*
X14436350Y-8329450D01*
X14508800Y-8069900D02*
X14548800Y-8109900D01*
X14548800Y-8069900D02*
X14508800Y-8109900D01*
X14521500Y-9828900D02*
X14561500Y-9868900D01*
X14561500Y-9828900D02*
X14521500Y-9868900D01*
X14585000Y-8247700D02*
X14625000Y-8287700D01*
X14625000Y-8247700D02*
X14585000Y-8287700D01*
X14635800Y-10396650D02*
X14675800Y-10436650D01*
X14675800Y-10396650D02*
X14635800Y-10436650D01*
X14775500Y-9568500D02*
X14815500Y-9608500D01*
X14815500Y-9568500D02*
X14775500Y-9608500D01*
X14775500Y-10325500D02*
X14815500Y-10365500D01*
X14815500Y-10325500D02*
X14775500Y-10365500D01*
X14775500Y-10775000D02*
X14815500Y-10815000D01*
X14815500Y-10775000D02*
X14775500Y-10815000D01*
X14778650Y-9832050D02*
X14818650Y-9872050D01*
X14818650Y-9832050D02*
X14778650Y-9872050D01*
X14839000Y-8247700D02*
X14879000Y-8287700D01*
X14879000Y-8247700D02*
X14839000Y-8287700D01*
X14839000Y-8347650D02*
X14879000Y-8387650D01*
X14879000Y-8347650D02*
X14839000Y-8387650D01*
X15004100Y-9828900D02*
X15044100Y-9868900D01*
X15044100Y-9828900D02*
X15004100Y-9868900D01*
X15016800Y-9657400D02*
X15056800Y-9697400D01*
X15056800Y-9657400D02*
X15016800Y-9697400D01*
X15029500Y-10775000D02*
X15069500Y-10815000D01*
X15069500Y-10775000D02*
X15029500Y-10815000D01*
X15067600Y-10470200D02*
X15107600Y-10510200D01*
X15107600Y-10470200D02*
X15067600Y-10510200D01*
X15159050Y-9828900D02*
X15199050Y-9868900D01*
X15199050Y-9828900D02*
X15159050Y-9868900D01*
X15192282Y-10248176D02*
X15232282Y-10288176D01*
X15232282Y-10248176D02*
X15192282Y-10288176D01*
X15283300Y-10775200D02*
X15323300Y-10815200D01*
X15323300Y-10775200D02*
X15283300Y-10815200D01*
X15308900Y-9924100D02*
X15348900Y-9964100D01*
X15348900Y-9924100D02*
X15308900Y-9964100D01*
D10*
X14388619Y-11352476D02*
X14388619Y-11152476D01*
X14436238Y-11152476D01*
X14464809Y-11162000D01*
X14483857Y-11181048D01*
X14493381Y-11200095D01*
X14502905Y-11238190D01*
X14502905Y-11266762D01*
X14493381Y-11304857D01*
X14483857Y-11323905D01*
X14464809Y-11342952D01*
X14436238Y-11352476D01*
X14388619Y-11352476D01*
X14588619Y-11352476D02*
X14588619Y-11219143D01*
X14588619Y-11257238D02*
X14598143Y-11238190D01*
X14607667Y-11228667D01*
X14626714Y-11219143D01*
X14645762Y-11219143D01*
X14712428Y-11352476D02*
X14712428Y-11219143D01*
X14712428Y-11152476D02*
X14702905Y-11162000D01*
X14712428Y-11171524D01*
X14721952Y-11162000D01*
X14712428Y-11152476D01*
X14712428Y-11171524D01*
X14836238Y-11352476D02*
X14817190Y-11342952D01*
X14807667Y-11323905D01*
X14807667Y-11152476D01*
X14941000Y-11352476D02*
X14921952Y-11342952D01*
X14912428Y-11323905D01*
X14912428Y-11152476D01*
X15169571Y-11352476D02*
X15169571Y-11152476D01*
X15236238Y-11295333D01*
X15302905Y-11152476D01*
X15302905Y-11352476D01*
X15483857Y-11352476D02*
X15483857Y-11247714D01*
X15474333Y-11228667D01*
X15455286Y-11219143D01*
X15417190Y-11219143D01*
X15398143Y-11228667D01*
X15483857Y-11342952D02*
X15464809Y-11352476D01*
X15417190Y-11352476D01*
X15398143Y-11342952D01*
X15388619Y-11323905D01*
X15388619Y-11304857D01*
X15398143Y-11285809D01*
X15417190Y-11276286D01*
X15464809Y-11276286D01*
X15483857Y-11266762D01*
X15579095Y-11219143D02*
X15579095Y-11419143D01*
X15579095Y-11228667D02*
X15598143Y-11219143D01*
X15636238Y-11219143D01*
X15655286Y-11228667D01*
X15664809Y-11238190D01*
X15674333Y-11257238D01*
X15674333Y-11314381D01*
X15664809Y-11333428D01*
X15655286Y-11342952D01*
X15636238Y-11352476D01*
X15598143Y-11352476D01*
X15579095Y-11342952D01*
X15760048Y-11333428D02*
X15769571Y-11342952D01*
X15760048Y-11352476D01*
X15750524Y-11342952D01*
X15760048Y-11333428D01*
X15760048Y-11352476D01*
X15760048Y-11228667D02*
X15769571Y-11238190D01*
X15760048Y-11247714D01*
X15750524Y-11238190D01*
X15760048Y-11228667D01*
X15760048Y-11247714D01*
D11*
X14091000Y-11662000D02*
X14131000Y-11702000D01*
X14131000Y-11662000D02*
X14091000Y-11702000D01*
D10*
X14426714Y-11572476D02*
X14445762Y-11572476D01*
X14464809Y-11582000D01*
X14474333Y-11591524D01*
X14483857Y-11610571D01*
X14493381Y-11648667D01*
X14493381Y-11696286D01*
X14483857Y-11734381D01*
X14474333Y-11753428D01*
X14464809Y-11762952D01*
X14445762Y-11772476D01*
X14426714Y-11772476D01*
X14407667Y-11762952D01*
X14398143Y-11753428D01*
X14388619Y-11734381D01*
X14379095Y-11696286D01*
X14379095Y-11648667D01*
X14388619Y-11610571D01*
X14398143Y-11591524D01*
X14407667Y-11582000D01*
X14426714Y-11572476D01*
X14579095Y-11753428D02*
X14588619Y-11762952D01*
X14579095Y-11772476D01*
X14569571Y-11762952D01*
X14579095Y-11753428D01*
X14579095Y-11772476D01*
X14760048Y-11639143D02*
X14760048Y-11772476D01*
X14712428Y-11562952D02*
X14664809Y-11705809D01*
X14788619Y-11705809D01*
X14902905Y-11572476D02*
X14921952Y-11572476D01*
X14941000Y-11582000D01*
X14950524Y-11591524D01*
X14960048Y-11610571D01*
X14969571Y-11648667D01*
X14969571Y-11696286D01*
X14960048Y-11734381D01*
X14950524Y-11753428D01*
X14941000Y-11762952D01*
X14921952Y-11772476D01*
X14902905Y-11772476D01*
X14883857Y-11762952D01*
X14874333Y-11753428D01*
X14864809Y-11734381D01*
X14855286Y-11696286D01*
X14855286Y-11648667D01*
X14864809Y-11610571D01*
X14874333Y-11591524D01*
X14883857Y-11582000D01*
X14902905Y-11572476D01*
X15093381Y-11572476D02*
X15112428Y-11572476D01*
X15131476Y-11582000D01*
X15141000Y-11591524D01*
X15150524Y-11610571D01*
X15160048Y-11648667D01*
X15160048Y-11696286D01*
X15150524Y-11734381D01*
X15141000Y-11753428D01*
X15131476Y-11762952D01*
X15112428Y-11772476D01*
X15093381Y-11772476D01*
X15074333Y-11762952D01*
X15064809Y-11753428D01*
X15055286Y-11734381D01*
X15045762Y-11696286D01*
X15045762Y-11648667D01*
X15055286Y-11610571D01*
X15064809Y-11591524D01*
X15074333Y-11582000D01*
X15093381Y-11572476D01*
X15245762Y-11772476D02*
X15245762Y-11639143D01*
X15245762Y-11658190D02*
X15255286Y-11648667D01*
X15274333Y-11639143D01*
X15302905Y-11639143D01*
X15321952Y-11648667D01*
X15331476Y-11667714D01*
X15331476Y-11772476D01*
X15331476Y-11667714D02*
X15341000Y-11648667D01*
X15360048Y-11639143D01*
X15388619Y-11639143D01*
X15407667Y-11648667D01*
X15417190Y-11667714D01*
X15417190Y-11772476D01*
X15512428Y-11772476D02*
X15512428Y-11639143D01*
X15512428Y-11658190D02*
X15521952Y-11648667D01*
X15541000Y-11639143D01*
X15569571Y-11639143D01*
X15588619Y-11648667D01*
X15598143Y-11667714D01*
X15598143Y-11772476D01*
X15598143Y-11667714D02*
X15607667Y-11648667D01*
X15626714Y-11639143D01*
X15655286Y-11639143D01*
X15674333Y-11648667D01*
X15683857Y-11667714D01*
X15683857Y-11772476D01*
X16074333Y-11562952D02*
X15902905Y-11820095D01*
X16331476Y-11572476D02*
X16350524Y-11572476D01*
X16369571Y-11582000D01*
X16379095Y-11591524D01*
X16388619Y-11610571D01*
X16398143Y-11648667D01*
X16398143Y-11696286D01*
X16388619Y-11734381D01*
X16379095Y-11753428D01*
X16369571Y-11762952D01*
X16350524Y-11772476D01*
X16331476Y-11772476D01*
X16312428Y-11762952D01*
X16302905Y-11753428D01*
X16293381Y-11734381D01*
X16283857Y-11696286D01*
X16283857Y-11648667D01*
X16293381Y-11610571D01*
X16302905Y-11591524D01*
X16312428Y-11582000D01*
X16331476Y-11572476D01*
X16483857Y-11753428D02*
X16493381Y-11762952D01*
X16483857Y-11772476D01*
X16474333Y-11762952D01*
X16483857Y-11753428D01*
X16483857Y-11772476D01*
X16617190Y-11572476D02*
X16636238Y-11572476D01*
X16655286Y-11582000D01*
X16664809Y-11591524D01*
X16674333Y-11610571D01*
X16683857Y-11648667D01*
X16683857Y-11696286D01*
X16674333Y-11734381D01*
X16664809Y-11753428D01*
X16655286Y-11762952D01*
X16636238Y-11772476D01*
X16617190Y-11772476D01*
X16598143Y-11762952D01*
X16588619Y-11753428D01*
X16579095Y-11734381D01*
X16569571Y-11696286D01*
X16569571Y-11648667D01*
X16579095Y-11610571D01*
X16588619Y-11591524D01*
X16598143Y-11582000D01*
X16617190Y-11572476D01*
X16874333Y-11772476D02*
X16760048Y-11772476D01*
X16817190Y-11772476D02*
X16817190Y-11572476D01*
X16798143Y-11601048D01*
X16779095Y-11620095D01*
X16760048Y-11629619D01*
X17055286Y-11572476D02*
X16960048Y-11572476D01*
X16950524Y-11667714D01*
X16960048Y-11658190D01*
X16979095Y-11648667D01*
X17026714Y-11648667D01*
X17045762Y-11658190D01*
X17055286Y-11667714D01*
X17064810Y-11686762D01*
X17064810Y-11734381D01*
X17055286Y-11753428D01*
X17045762Y-11762952D01*
X17026714Y-11772476D01*
X16979095Y-11772476D01*
X16960048Y-11762952D01*
X16950524Y-11753428D01*
X17131476Y-11572476D02*
X17264810Y-11572476D01*
X17179095Y-11772476D01*
X17331476Y-11572476D02*
X17331476Y-11610571D01*
X17407667Y-11572476D02*
X17407667Y-11610571D01*
X17702905Y-11848667D02*
X17693381Y-11839143D01*
X17674333Y-11810571D01*
X17664810Y-11791524D01*
X17655286Y-11762952D01*
X17645762Y-11715333D01*
X17645762Y-11677238D01*
X17655286Y-11629619D01*
X17664810Y-11601048D01*
X17674333Y-11582000D01*
X17693381Y-11553428D01*
X17702905Y-11543905D01*
X17769571Y-11591524D02*
X17779095Y-11582000D01*
X17798143Y-11572476D01*
X17845762Y-11572476D01*
X17864810Y-11582000D01*
X17874333Y-11591524D01*
X17883857Y-11610571D01*
X17883857Y-11629619D01*
X17874333Y-11658190D01*
X17760048Y-11772476D01*
X17883857Y-11772476D01*
X18055286Y-11639143D02*
X18055286Y-11772476D01*
X18007667Y-11562952D02*
X17960048Y-11705809D01*
X18083857Y-11705809D01*
X18312429Y-11772476D02*
X18312429Y-11572476D01*
X18398143Y-11772476D02*
X18398143Y-11667714D01*
X18388619Y-11648667D01*
X18369571Y-11639143D01*
X18341000Y-11639143D01*
X18321952Y-11648667D01*
X18312429Y-11658190D01*
X18521952Y-11772476D02*
X18502905Y-11762952D01*
X18493381Y-11753428D01*
X18483857Y-11734381D01*
X18483857Y-11677238D01*
X18493381Y-11658190D01*
X18502905Y-11648667D01*
X18521952Y-11639143D01*
X18550524Y-11639143D01*
X18569571Y-11648667D01*
X18579095Y-11658190D01*
X18588619Y-11677238D01*
X18588619Y-11734381D01*
X18579095Y-11753428D01*
X18569571Y-11762952D01*
X18550524Y-11772476D01*
X18521952Y-11772476D01*
X18702905Y-11772476D02*
X18683857Y-11762952D01*
X18674333Y-11743905D01*
X18674333Y-11572476D01*
X18855286Y-11762952D02*
X18836238Y-11772476D01*
X18798143Y-11772476D01*
X18779095Y-11762952D01*
X18769571Y-11743905D01*
X18769571Y-11667714D01*
X18779095Y-11648667D01*
X18798143Y-11639143D01*
X18836238Y-11639143D01*
X18855286Y-11648667D01*
X18864810Y-11667714D01*
X18864810Y-11686762D01*
X18769571Y-11705809D01*
X18941000Y-11762952D02*
X18960048Y-11772476D01*
X18998143Y-11772476D01*
X19017190Y-11762952D01*
X19026714Y-11743905D01*
X19026714Y-11734381D01*
X19017190Y-11715333D01*
X18998143Y-11705809D01*
X18969571Y-11705809D01*
X18950524Y-11696286D01*
X18941000Y-11677238D01*
X18941000Y-11667714D01*
X18950524Y-11648667D01*
X18969571Y-11639143D01*
X18998143Y-11639143D01*
X19017190Y-11648667D01*
X19093381Y-11848667D02*
X19102905Y-11839143D01*
X19121952Y-11810571D01*
X19131476Y-11791524D01*
X19141000Y-11762952D01*
X19150524Y-11715333D01*
X19150524Y-11677238D01*
X19141000Y-11629619D01*
X19131476Y-11601048D01*
X19121952Y-11582000D01*
X19102905Y-11553428D01*
X19093381Y-11543905D01*
M02*
