  0
SECTION
  2
HEADER
  9
$ANGBASE
  50
0.0
  9
$ANGDIR
  70
1
  9
$MEASUREMENT
  70
0
  0
ENDSEC
  0
SECTION
  2
TABLES
  0
TABLE
  2
LTYPE
  70
4
  0
LTYPE
  5
40F
  2
CONTINUOUS
  70
0
  3
Solid line
  72
65
  73
0
  40
0.0
  0
LTYPE
  5
410
  2
DASHDOT
 70
0
  3
Dash Dot ____ _ ____ _
 72
65
 73
4
 40
2.0
 49
1.25
 49
-0.25
 49
0.25
 49
-0.25
  0
LTYPE
  5
411
  2
DASHED
 70
0
  3
Dashed __ __ __ __ __
 72
65
 73
2
 40
0.75
 49
0.5
 49
-0.25
  0
LTYPE
  5
43B
  2
DOTTED
 70
0
  3
Dotted .  .  .  .
 72
65
 73
2
 40
0.2
 49
0.0
 49
-0.2
  0
ENDTAB
  0
TABLE
  2
STYLE
  70
4
  0
STYLE
  2
KICAD
  70
0
  40
0
  41
1
  42
1
  50
0
  71
0
  3
isocp.shx
  0
STYLE
  2
KICADB
  70
0
  40
0
  41
1
  42
1
  50
0
  71
0
  3
isocp.shx
  0
STYLE
  2
KICADI
  70
0
  40
0
  41
1
  42
1
  50
15
  71
0
  3
isocp.shx
  0
STYLE
  2
KICADBI
  70
0
  40
0
  41
1
  42
1
  50
15
  71
0
  3
isocp.shx
  0
ENDTAB
  0
TABLE
  2
LAYER
  70
1
  0
LAYER
  2
BLACK
  70
0
  62
7
  6
CONTINUOUS
  0
ENDTAB
  0
ENDSEC
  0
SECTION
  2
ENTITIES
0
LINE
8
BLACK
6
CONTINUOUS
10
5.66481
20
-4.46948
11
5.66481
21
-4.39074
0
LINE
8
BLACK
6
CONTINUOUS
10
5.66481
20
-4.39074
11
5.68356
21
-4.39074
0
LINE
8
BLACK
6
CONTINUOUS
10
5.68356
20
-4.39074
11
5.69481
21
-4.39449
0
LINE
8
BLACK
6
CONTINUOUS
10
5.69481
20
-4.39449
11
5.70231
21
-4.40199
0
LINE
8
BLACK
6
CONTINUOUS
10
5.70231
20
-4.40199
11
5.70606
21
-4.40949
0
LINE
8
BLACK
6
CONTINUOUS
10
5.70606
20
-4.40949
11
5.70981
21
-4.42448
0
LINE
8
BLACK
6
CONTINUOUS
10
5.70981
20
-4.42448
11
5.70981
21
-4.43573
0
LINE
8
BLACK
6
CONTINUOUS
10
5.70981
20
-4.43573
11
5.70606
21
-4.45073
0
LINE
8
BLACK
6
CONTINUOUS
10
5.70606
20
-4.45073
11
5.70231
21
-4.45823
0
LINE
8
BLACK
6
CONTINUOUS
10
5.70231
20
-4.45823
11
5.69481
21
-4.46573
0
LINE
8
BLACK
6
CONTINUOUS
10
5.69481
20
-4.46573
11
5.68356
21
-4.46948
0
LINE
8
BLACK
6
CONTINUOUS
10
5.68356
20
-4.46948
11
5.66481
21
-4.46948
0
LINE
8
BLACK
6
CONTINUOUS
10
5.74355
20
-4.46948
11
5.74355
21
-4.41699
0
LINE
8
BLACK
6
CONTINUOUS
10
5.74355
20
-4.43198
11
5.7473
21
-4.42448
0
LINE
8
BLACK
6
CONTINUOUS
10
5.7473
20
-4.42448
11
5.75105
21
-4.42073
0
LINE
8
BLACK
6
CONTINUOUS
10
5.75105
20
-4.42073
11
5.75855
21
-4.41699
0
LINE
8
BLACK
6
CONTINUOUS
10
5.75855
20
-4.41699
11
5.76605
21
-4.41699
0
LINE
8
BLACK
6
CONTINUOUS
10
5.79229
20
-4.46948
11
5.79229
21
-4.41699
0
LINE
8
BLACK
6
CONTINUOUS
10
5.79229
20
-4.39074
11
5.78855
21
-4.39449
0
LINE
8
BLACK
6
CONTINUOUS
10
5.78855
20
-4.39449
11
5.79229
21
-4.39824
0
LINE
8
BLACK
6
CONTINUOUS
10
5.79229
20
-4.39824
11
5.79604
21
-4.39449
0
LINE
8
BLACK
6
CONTINUOUS
10
5.79604
20
-4.39449
11
5.79229
21
-4.39074
0
LINE
8
BLACK
6
CONTINUOUS
10
5.79229
20
-4.39074
11
5.79229
21
-4.39824
0
LINE
8
BLACK
6
CONTINUOUS
10
5.84104
20
-4.46948
11
5.83354
21
-4.46573
0
LINE
8
BLACK
6
CONTINUOUS
10
5.83354
20
-4.46573
11
5.82979
21
-4.45823
0
LINE
8
BLACK
6
CONTINUOUS
10
5.82979
20
-4.45823
11
5.82979
21
-4.39074
0
LINE
8
BLACK
6
CONTINUOUS
10
5.88228
20
-4.46948
11
5.87478
21
-4.46573
0
LINE
8
BLACK
6
CONTINUOUS
10
5.87478
20
-4.46573
11
5.87103
21
-4.45823
0
LINE
8
BLACK
6
CONTINUOUS
10
5.87103
20
-4.45823
11
5.87103
21
-4.39074
0
LINE
8
BLACK
6
CONTINUOUS
10
5.97227
20
-4.46948
11
5.97227
21
-4.39074
0
LINE
8
BLACK
6
CONTINUOUS
10
5.97227
20
-4.39074
11
5.99852
21
-4.44698
0
LINE
8
BLACK
6
CONTINUOUS
10
5.99852
20
-4.44698
11
6.02477
21
-4.39074
0
LINE
8
BLACK
6
CONTINUOUS
10
6.02477
20
-4.39074
11
6.02477
21
-4.46948
0
LINE
8
BLACK
6
CONTINUOUS
10
6.09601
20
-4.46948
11
6.09601
21
-4.42823
0
LINE
8
BLACK
6
CONTINUOUS
10
6.09601
20
-4.42823
11
6.09226
21
-4.42073
0
LINE
8
BLACK
6
CONTINUOUS
10
6.09226
20
-4.42073
11
6.08476
21
-4.41699
0
LINE
8
BLACK
6
CONTINUOUS
10
6.08476
20
-4.41699
11
6.06976
21
-4.41699
0
LINE
8
BLACK
6
CONTINUOUS
10
6.06976
20
-4.41699
11
6.06226
21
-4.42073
0
LINE
8
BLACK
6
CONTINUOUS
10
6.09601
20
-4.46573
11
6.08851
21
-4.46948
0
LINE
8
BLACK
6
CONTINUOUS
10
6.08851
20
-4.46948
11
6.06976
21
-4.46948
0
LINE
8
BLACK
6
CONTINUOUS
10
6.06976
20
-4.46948
11
6.06226
21
-4.46573
0
LINE
8
BLACK
6
CONTINUOUS
10
6.06226
20
-4.46573
11
6.05851
21
-4.45823
0
LINE
8
BLACK
6
CONTINUOUS
10
6.05851
20
-4.45823
11
6.05851
21
-4.45073
0
LINE
8
BLACK
6
CONTINUOUS
10
6.05851
20
-4.45073
11
6.06226
21
-4.44323
0
LINE
8
BLACK
6
CONTINUOUS
10
6.06226
20
-4.44323
11
6.06976
21
-4.43948
0
LINE
8
BLACK
6
CONTINUOUS
10
6.06976
20
-4.43948
11
6.08851
21
-4.43948
0
LINE
8
BLACK
6
CONTINUOUS
10
6.08851
20
-4.43948
11
6.09601
21
-4.43573
0
LINE
8
BLACK
6
CONTINUOUS
10
6.1335
20
-4.41699
11
6.1335
21
-4.49573
0
LINE
8
BLACK
6
CONTINUOUS
10
6.1335
20
-4.42073
11
6.141
21
-4.41699
0
LINE
8
BLACK
6
CONTINUOUS
10
6.141
20
-4.41699
11
6.156
21
-4.41699
0
LINE
8
BLACK
6
CONTINUOUS
10
6.156
20
-4.41699
11
6.1635
21
-4.42073
0
LINE
8
BLACK
6
CONTINUOUS
10
6.1635
20
-4.42073
11
6.16725
21
-4.42448
0
LINE
8
BLACK
6
CONTINUOUS
10
6.16725
20
-4.42448
11
6.171
21
-4.43198
0
LINE
8
BLACK
6
CONTINUOUS
10
6.171
20
-4.43198
11
6.171
21
-4.45448
0
LINE
8
BLACK
6
CONTINUOUS
10
6.171
20
-4.45448
11
6.16725
21
-4.46198
0
LINE
8
BLACK
6
CONTINUOUS
10
6.16725
20
-4.46198
11
6.1635
21
-4.46573
0
LINE
8
BLACK
6
CONTINUOUS
10
6.1635
20
-4.46573
11
6.156
21
-4.46948
0
LINE
8
BLACK
6
CONTINUOUS
10
6.156
20
-4.46948
11
6.141
21
-4.46948
0
LINE
8
BLACK
6
CONTINUOUS
10
6.141
20
-4.46948
11
6.1335
21
-4.46573
0
LINE
8
BLACK
6
CONTINUOUS
10
6.20474
20
-4.46198
11
6.20849
21
-4.46573
0
LINE
8
BLACK
6
CONTINUOUS
10
6.20849
20
-4.46573
11
6.20474
21
-4.46948
0
LINE
8
BLACK
6
CONTINUOUS
10
6.20474
20
-4.46948
11
6.20099
21
-4.46573
0
LINE
8
BLACK
6
CONTINUOUS
10
6.20099
20
-4.46573
11
6.20474
21
-4.46198
0
LINE
8
BLACK
6
CONTINUOUS
10
6.20474
20
-4.46198
11
6.20474
21
-4.46948
0
LINE
8
BLACK
6
CONTINUOUS
10
6.20474
20
-4.42073
11
6.20849
21
-4.42448
0
LINE
8
BLACK
6
CONTINUOUS
10
6.20849
20
-4.42448
11
6.20474
21
-4.42823
0
LINE
8
BLACK
6
CONTINUOUS
10
6.20474
20
-4.42823
11
6.20099
21
-4.42448
0
LINE
8
BLACK
6
CONTINUOUS
10
6.20099
20
-4.42448
11
6.20474
21
-4.42073
0
LINE
8
BLACK
6
CONTINUOUS
10
6.20474
20
-4.42073
11
6.20474
21
-4.42823
  0
ENDSEC
  0
EOF
