%TF.GenerationSoftware,KiCad,Pcbnew,(6.0.8-1)-1*%
%TF.CreationDate,2022-10-04T12:57:59-04:00*%
%TF.ProjectId,SWD_pogoadapter,5357445f-706f-4676-9f61-646170746572,rev?*%
%TF.SameCoordinates,Original*%
%TF.FileFunction,Copper,L1,Top*%
%TF.FilePolarity,Positive*%
%FSLAX46Y46*%
G04 Gerber Fmt 4.6, Leading zero omitted, Abs format (unit mm)*
G04 Created by KiCad (PCBNEW (6.0.8-1)-1) date 2022-10-04 12:57:59*
%MOMM*%
%LPD*%
G01*
G04 APERTURE LIST*
G04 Aperture macros list*
%AMRoundRect*
0 Rectangle with rounded corners*
0 $1 Rounding radius*
0 $2 $3 $4 $5 $6 $7 $8 $9 X,Y pos of 4 corners*
0 Add a 4 corners polygon primitive as box body*
4,1,4,$2,$3,$4,$5,$6,$7,$8,$9,$2,$3,0*
0 Add four circle primitives for the rounded corners*
1,1,$1+$1,$2,$3*
1,1,$1+$1,$4,$5*
1,1,$1+$1,$6,$7*
1,1,$1+$1,$8,$9*
0 Add four rect primitives between the rounded corners*
20,1,$1+$1,$2,$3,$4,$5,0*
20,1,$1+$1,$4,$5,$6,$7,0*
20,1,$1+$1,$6,$7,$8,$9,0*
20,1,$1+$1,$8,$9,$2,$3,0*%
G04 Aperture macros list end*
%TA.AperFunction,SMDPad,CuDef*%
%ADD10RoundRect,0.218750X-0.218750X-0.256250X0.218750X-0.256250X0.218750X0.256250X-0.218750X0.256250X0*%
%TD*%
%TA.AperFunction,SMDPad,CuDef*%
%ADD11R,0.700000X2.200000*%
%TD*%
%TA.AperFunction,SMDPad,CuDef*%
%ADD12RoundRect,0.218750X0.218750X0.256250X-0.218750X0.256250X-0.218750X-0.256250X0.218750X-0.256250X0*%
%TD*%
%TA.AperFunction,SMDPad,CuDef*%
%ADD13R,1.000000X1.600000*%
%TD*%
%TA.AperFunction,SMDPad,CuDef*%
%ADD14R,1.000000X4.000000*%
%TD*%
%TA.AperFunction,SMDPad,CuDef*%
%ADD15RoundRect,0.200000X0.275000X-0.200000X0.275000X0.200000X-0.275000X0.200000X-0.275000X-0.200000X0*%
%TD*%
%TA.AperFunction,ViaPad*%
%ADD16C,0.800000*%
%TD*%
%TA.AperFunction,Conductor*%
%ADD17C,0.250000*%
%TD*%
G04 APERTURE END LIST*
D10*
%TO.P,D1,1,K*%
%TO.N,Net-(D1-Pad1)*%
X150215500Y-98489000D03*
%TO.P,D1,2,A*%
%TO.N,5V*%
X151790500Y-98489000D03*
%TD*%
D11*
%TO.P,J2,1,Pin_1*%
%TO.N,SUPPLYV*%
X144185000Y-80945000D03*
%TO.P,J2,2,Pin_2*%
%TO.N,SWDIO*%
X146385000Y-80945000D03*
%TO.P,J2,3,Pin_3*%
%TO.N,NRESET*%
X148585000Y-80945000D03*
%TD*%
D12*
%TO.P,D2,1,K*%
%TO.N,Net-(D1-Pad1)*%
X145440500Y-98489000D03*
%TO.P,D2,2,A*%
%TO.N,3V3*%
X143865500Y-98489000D03*
%TD*%
D13*
%TO.P,SW1,1,A*%
%TO.N,3V3*%
X145455000Y-103120000D03*
%TO.P,SW1,2,B*%
%TO.N,SUPPLYV*%
X147955000Y-103120000D03*
%TO.P,SW1,3,C*%
%TO.N,5V*%
X150455000Y-103120000D03*
%TO.P,SW1,4,A*%
%TO.N,unconnected-(SW1-Pad4)*%
X145455000Y-100720000D03*
%TO.P,SW1,5,B*%
%TO.N,unconnected-(SW1-Pad5)*%
X147955000Y-100720000D03*
%TO.P,SW1,6,C*%
%TO.N,unconnected-(SW1-Pad6)*%
X150455000Y-100720000D03*
%TD*%
D14*
%TO.P,J1,1,Pin_1*%
%TO.N,NRESET*%
X142873000Y-107952000D03*
%TO.P,J1,2,Pin_2*%
%TO.N,SWIM*%
X145413000Y-107952000D03*
%TO.P,J1,3,Pin_3*%
%TO.N,GND*%
X147953000Y-107952000D03*
%TO.P,J1,4,Pin_4*%
%TO.N,3V3*%
X150493000Y-107952000D03*
%TO.P,J1,5,Pin_5*%
%TO.N,5V*%
X153033000Y-107952000D03*
%TD*%
D15*
%TO.P,R1,1*%
%TO.N,Net-(D1-Pad1)*%
X147955000Y-98552000D03*
%TO.P,R1,2*%
%TO.N,GND*%
X147955000Y-96902000D03*
%TD*%
D16*
%TO.N,SUPPLYV*%
X148590000Y-83676503D03*
X147955000Y-103455000D03*
X144563500Y-83094500D03*
%TO.N,GND*%
X150368000Y-96774000D03*
X150876000Y-104902000D03*
X147955000Y-95885000D03*
X144145000Y-105029000D03*
X144145000Y-96774000D03*
X153289000Y-99441000D03*
X147955000Y-107950000D03*
%TO.N,Net-(D1-Pad1)*%
X147986500Y-98520500D03*
X145415000Y-98489000D03*
X150241000Y-98489000D03*
%TO.N,5V*%
X152122820Y-102681761D03*
X151790500Y-98489000D03*
X153033000Y-107952000D03*
%TO.N,3V3*%
X150495000Y-107950000D03*
X143865500Y-98489000D03*
X143747236Y-102730224D03*
%TO.N,NRESET*%
X148590000Y-82677000D03*
X146050000Y-82677000D03*
%TO.N,SWDIO*%
X146558000Y-104166500D03*
%TO.N,SWCLK*%
X142494000Y-99822000D03*
X145288000Y-80899000D03*
%TD*%
D17*
%TO.N,SUPPLYV*%
X148590000Y-83676503D02*
X148971000Y-84057503D01*
X148971000Y-84057503D02*
X148971000Y-102439000D01*
X148971000Y-102439000D02*
X147955000Y-103455000D01*
%TO.N,NRESET*%
X146558000Y-98737000D02*
X145854000Y-99441000D01*
X144934000Y-99441000D02*
X142873000Y-101502000D01*
X146050000Y-82677000D02*
X146558000Y-83185000D01*
X146558000Y-83185000D02*
X146558000Y-98737000D01*
X145854000Y-99441000D02*
X144934000Y-99441000D01*
X142873000Y-101502000D02*
X142873000Y-107952000D01*
%TO.N,SUPPLYV*%
X144563500Y-83094500D02*
X144563500Y-82253500D01*
X144563500Y-82253500D02*
X144185000Y-81875000D01*
X144185000Y-81875000D02*
X144185000Y-80945000D01*
%TO.N,SWCLK*%
X144678000Y-98920479D02*
X144309479Y-99289000D01*
X144678000Y-98007521D02*
X144678000Y-98920479D01*
X144309479Y-99289000D02*
X143027000Y-99289000D01*
X143027000Y-99289000D02*
X142494000Y-99822000D01*
X145288000Y-97397521D02*
X144678000Y-98007521D01*
X145288000Y-80899000D02*
X145288000Y-97397521D01*
%TO.N,NRESET*%
X148590000Y-82677000D02*
X148590000Y-80950000D01*
X148590000Y-80950000D02*
X148585000Y-80945000D01*
%TO.N,SUPPLYV*%
X147955000Y-103120000D02*
X147955000Y-103455000D01*
%TO.N,GND*%
X147953000Y-106297000D02*
X147953000Y-107952000D01*
X147008000Y-105352000D02*
X147953000Y-106297000D01*
X150368000Y-96774000D02*
X150368000Y-97397521D01*
X151498521Y-99441000D02*
X153289000Y-99441000D01*
X150368000Y-97397521D02*
X151003000Y-98032521D01*
X144145000Y-105029000D02*
X144468000Y-105352000D01*
X144468000Y-105352000D02*
X147008000Y-105352000D01*
X151003000Y-98945479D02*
X151498521Y-99441000D01*
X151003000Y-98032521D02*
X151003000Y-98945479D01*
%TO.N,Net-(D1-Pad1)*%
X148018000Y-98489000D02*
X147986500Y-98520500D01*
X147986500Y-98520500D02*
X147955000Y-98552000D01*
X147892000Y-98489000D02*
X147955000Y-98552000D01*
%TO.N,5V*%
X153033000Y-107952000D02*
X153033000Y-105698000D01*
X153033000Y-105698000D02*
X150455000Y-103120000D01*
X151684581Y-103120000D02*
X152122820Y-102681761D01*
X150455000Y-103120000D02*
X151684581Y-103120000D01*
%TO.N,3V3*%
X148971000Y-104902000D02*
X146268195Y-104902000D01*
X150495000Y-107950000D02*
X150495000Y-106426000D01*
X150495000Y-106426000D02*
X148971000Y-104902000D01*
X146268195Y-104902000D02*
X145455000Y-104088805D01*
X145455000Y-104088805D02*
X145455000Y-103120000D01*
X144137012Y-103120000D02*
X143747236Y-102730224D01*
X145455000Y-103120000D02*
X144137012Y-103120000D01*
%TO.N,SWDIO*%
X147066000Y-103658500D02*
X147066000Y-82454750D01*
X147066000Y-82454750D02*
X146385000Y-81773750D01*
X146385000Y-81773750D02*
X146385000Y-80945000D01*
X146558000Y-104166500D02*
X147066000Y-103658500D01*
%TO.N,SWIM*%
X145413000Y-106428000D02*
X145413000Y-107952000D01*
X145764500Y-106076500D02*
X145413000Y-106428000D01*
%TD*%
%TA.AperFunction,Conductor*%
%TO.N,GND*%
G36*
X143651749Y-103638724D02*
G01*
X143729010Y-103638724D01*
X143797131Y-103658726D01*
X143805396Y-103664571D01*
X143805711Y-103664757D01*
X143811972Y-103669614D01*
X143852552Y-103687174D01*
X143863200Y-103692391D01*
X143888501Y-103706300D01*
X143901952Y-103713695D01*
X143909628Y-103715666D01*
X143909631Y-103715667D01*
X143921574Y-103718733D01*
X143940279Y-103725137D01*
X143958867Y-103733181D01*
X143966690Y-103734420D01*
X143966700Y-103734423D01*
X144002536Y-103740099D01*
X144014156Y-103742505D01*
X144049301Y-103751528D01*
X144056982Y-103753500D01*
X144077236Y-103753500D01*
X144096946Y-103755051D01*
X144116955Y-103758220D01*
X144124847Y-103757474D01*
X144160973Y-103754059D01*
X144172831Y-103753500D01*
X144320500Y-103753500D01*
X144388621Y-103773502D01*
X144435114Y-103827158D01*
X144446500Y-103879500D01*
X144446500Y-103968134D01*
X144453255Y-104030316D01*
X144504385Y-104166705D01*
X144591739Y-104283261D01*
X144708295Y-104370615D01*
X144844684Y-104421745D01*
X144852536Y-104422598D01*
X144852540Y-104422599D01*
X144858906Y-104423290D01*
X144924468Y-104450531D01*
X144944857Y-104471325D01*
X144946422Y-104473342D01*
X144950458Y-104480167D01*
X144964779Y-104494488D01*
X144977619Y-104509521D01*
X144989528Y-104525912D01*
X144995634Y-104530963D01*
X145023605Y-104554103D01*
X145032384Y-104562093D01*
X145698696Y-105228405D01*
X145732722Y-105290717D01*
X145727657Y-105361532D01*
X145685110Y-105418368D01*
X145618590Y-105443179D01*
X145609601Y-105443500D01*
X144864866Y-105443500D01*
X144802684Y-105450255D01*
X144666295Y-105501385D01*
X144549739Y-105588739D01*
X144462385Y-105705295D01*
X144411255Y-105841684D01*
X144404500Y-105903866D01*
X144404500Y-109710500D01*
X144384498Y-109778621D01*
X144330842Y-109825114D01*
X144278500Y-109836500D01*
X144007500Y-109836500D01*
X143939379Y-109816498D01*
X143892886Y-109762842D01*
X143881500Y-109710500D01*
X143881500Y-105903866D01*
X143874745Y-105841684D01*
X143823615Y-105705295D01*
X143736261Y-105588739D01*
X143619705Y-105501385D01*
X143611296Y-105498232D01*
X143611293Y-105498231D01*
X143588269Y-105489599D01*
X143531505Y-105446957D01*
X143506806Y-105380395D01*
X143506500Y-105371618D01*
X143506500Y-103762701D01*
X143526502Y-103694580D01*
X143580158Y-103648087D01*
X143645561Y-103637409D01*
X143651749Y-103638724D01*
G37*
%TD.AperFunction*%
%TA.AperFunction,Conductor*%
G36*
X146952895Y-105555502D02*
G01*
X146999388Y-105609158D01*
X147009492Y-105679432D01*
X147002756Y-105705730D01*
X146954522Y-105834394D01*
X146950895Y-105849649D01*
X146945369Y-105900514D01*
X146945000Y-105907328D01*
X146945000Y-107679885D01*
X146949475Y-107695124D01*
X146950865Y-107696329D01*
X146958548Y-107698000D01*
X148942884Y-107698000D01*
X148958123Y-107693525D01*
X148959328Y-107692135D01*
X148960999Y-107684452D01*
X148960999Y-106092093D01*
X148981001Y-106023972D01*
X149034657Y-105977479D01*
X149104931Y-105967375D01*
X149169511Y-105996869D01*
X149176094Y-106002998D01*
X149447595Y-106274499D01*
X149481621Y-106336811D01*
X149484500Y-106363594D01*
X149484500Y-109710500D01*
X149464498Y-109778621D01*
X149410842Y-109825114D01*
X149358500Y-109836500D01*
X149087000Y-109836500D01*
X149018879Y-109816498D01*
X148972386Y-109762842D01*
X148961000Y-109710500D01*
X148961000Y-108224115D01*
X148956525Y-108208876D01*
X148955135Y-108207671D01*
X148947452Y-108206000D01*
X146963116Y-108206000D01*
X146947877Y-108210475D01*
X146946672Y-108211865D01*
X146945001Y-108219548D01*
X146945001Y-109710500D01*
X146924999Y-109778621D01*
X146871343Y-109825114D01*
X146819001Y-109836500D01*
X146547500Y-109836500D01*
X146479379Y-109816498D01*
X146432886Y-109762842D01*
X146421500Y-109710500D01*
X146421500Y-105903866D01*
X146414745Y-105841684D01*
X146363778Y-105705730D01*
X146358595Y-105634922D01*
X146392516Y-105572553D01*
X146454771Y-105538424D01*
X146481760Y-105535500D01*
X146884774Y-105535500D01*
X146952895Y-105555502D01*
G37*
%TD.AperFunction*%
%TA.AperFunction,Conductor*%
G36*
X149364532Y-103045539D02*
G01*
X149421368Y-103088086D01*
X149446179Y-103154606D01*
X149446500Y-103163595D01*
X149446500Y-103968134D01*
X149453255Y-104030316D01*
X149504385Y-104166705D01*
X149509771Y-104173891D01*
X149565228Y-104247887D01*
X149584366Y-104299110D01*
X149637329Y-104317429D01*
X149708295Y-104370615D01*
X149844684Y-104421745D01*
X149906866Y-104428500D01*
X150815406Y-104428500D01*
X150883527Y-104448502D01*
X150904501Y-104465405D01*
X152041928Y-105602832D01*
X152075954Y-105665144D01*
X152070815Y-105736156D01*
X152034029Y-105834282D01*
X152034027Y-105834288D01*
X152031255Y-105841684D01*
X152024500Y-105903866D01*
X152024500Y-109710500D01*
X152004498Y-109778621D01*
X151950842Y-109825114D01*
X151898500Y-109836500D01*
X151627500Y-109836500D01*
X151559379Y-109816498D01*
X151512886Y-109762842D01*
X151501500Y-109710500D01*
X151501500Y-105903866D01*
X151494745Y-105841684D01*
X151443615Y-105705295D01*
X151356261Y-105588739D01*
X151239705Y-105501385D01*
X151103316Y-105450255D01*
X151041134Y-105443500D01*
X150460595Y-105443500D01*
X150392474Y-105423498D01*
X150371500Y-105406595D01*
X149474652Y-104509747D01*
X149467112Y-104501461D01*
X149463430Y-104495659D01*
X149441165Y-104443804D01*
X149388949Y-104424362D01*
X149378150Y-104415303D01*
X149352101Y-104390841D01*
X149352097Y-104390838D01*
X149346321Y-104385414D01*
X149339375Y-104381595D01*
X149339372Y-104381593D01*
X149328566Y-104375652D01*
X149312047Y-104364801D01*
X149311583Y-104364441D01*
X149296041Y-104352386D01*
X149288772Y-104349241D01*
X149288768Y-104349238D01*
X149255463Y-104334826D01*
X149244813Y-104329609D01*
X149206060Y-104308305D01*
X149186437Y-104303267D01*
X149167734Y-104296863D01*
X149156420Y-104291967D01*
X149156419Y-104291967D01*
X149149145Y-104288819D01*
X149141322Y-104287580D01*
X149141312Y-104287577D01*
X149105476Y-104281901D01*
X149093856Y-104279495D01*
X149058711Y-104270472D01*
X149058710Y-104270472D01*
X149051030Y-104268500D01*
X149043101Y-104268500D01*
X149035240Y-104267507D01*
X149035620Y-104264497D01*
X148981131Y-104248498D01*
X148934638Y-104194842D01*
X148924534Y-104124568D01*
X148931270Y-104098270D01*
X148953971Y-104037715D01*
X148956745Y-104030316D01*
X148963500Y-103968134D01*
X148963500Y-103394595D01*
X148983502Y-103326474D01*
X149000405Y-103305500D01*
X149231405Y-103074500D01*
X149293717Y-103040474D01*
X149364532Y-103045539D01*
G37*
%TD.AperFunction*%
%TA.AperFunction,Conductor*%
G36*
X152922757Y-98717667D02*
G01*
X152924321Y-98718570D01*
X152928824Y-98721723D01*
X153008790Y-98759012D01*
X153082905Y-98793572D01*
X153088755Y-98796300D01*
X153094063Y-98797722D01*
X153094065Y-98797723D01*
X153253892Y-98840548D01*
X153253893Y-98840548D01*
X153259207Y-98841972D01*
X153388712Y-98853302D01*
X153398626Y-98854568D01*
X153407689Y-98856093D01*
X153417656Y-98857770D01*
X153417658Y-98857770D01*
X153422448Y-98858576D01*
X153428724Y-98858652D01*
X153430140Y-98858670D01*
X153430143Y-98858670D01*
X153435000Y-98858729D01*
X153462624Y-98854773D01*
X153480486Y-98853500D01*
X153750500Y-98853500D01*
X153818621Y-98873502D01*
X153865114Y-98927158D01*
X153876500Y-98979500D01*
X153876500Y-105355873D01*
X153856498Y-105423994D01*
X153802842Y-105470487D01*
X153732568Y-105480591D01*
X153706272Y-105473855D01*
X153663108Y-105457674D01*
X153606343Y-105415033D01*
X153596922Y-105400394D01*
X153595470Y-105397754D01*
X153592552Y-105390383D01*
X153566563Y-105354612D01*
X153560047Y-105344692D01*
X153541578Y-105313463D01*
X153537542Y-105306638D01*
X153523221Y-105292317D01*
X153510380Y-105277283D01*
X153503131Y-105267306D01*
X153498472Y-105260893D01*
X153464395Y-105232702D01*
X153455616Y-105224712D01*
X152052118Y-103821214D01*
X152018092Y-103758902D01*
X152023157Y-103688087D01*
X152063982Y-103632563D01*
X152069120Y-103628577D01*
X152075943Y-103624542D01*
X152081552Y-103618933D01*
X152084424Y-103616705D01*
X152150508Y-103590755D01*
X152161655Y-103590261D01*
X152218307Y-103590261D01*
X152224759Y-103588889D01*
X152224764Y-103588889D01*
X152311707Y-103570408D01*
X152405108Y-103550555D01*
X152411139Y-103547870D01*
X152573542Y-103475564D01*
X152573544Y-103475563D01*
X152579572Y-103472879D01*
X152734073Y-103360627D01*
X152750480Y-103342405D01*
X152857441Y-103223613D01*
X152857442Y-103223612D01*
X152861860Y-103218705D01*
X152957347Y-103053317D01*
X153016362Y-102871689D01*
X153036324Y-102681761D01*
X153016362Y-102491833D01*
X152957347Y-102310205D01*
X152861860Y-102144817D01*
X152797462Y-102073295D01*
X152738495Y-102007806D01*
X152738494Y-102007805D01*
X152734073Y-102002895D01*
X152579572Y-101890643D01*
X152573544Y-101887959D01*
X152573542Y-101887958D01*
X152411139Y-101815652D01*
X152411138Y-101815652D01*
X152405108Y-101812967D01*
X152311708Y-101793114D01*
X152224764Y-101774633D01*
X152224759Y-101774633D01*
X152218307Y-101773261D01*
X152027333Y-101773261D01*
X152020881Y-101774633D01*
X152020876Y-101774633D01*
X151933932Y-101793114D01*
X151840532Y-101812967D01*
X151834502Y-101815652D01*
X151834501Y-101815652D01*
X151672098Y-101887958D01*
X151672096Y-101887959D01*
X151666068Y-101890643D01*
X151660727Y-101894523D01*
X151660726Y-101894524D01*
X151566344Y-101963097D01*
X151499476Y-101986955D01*
X151430325Y-101970875D01*
X151380845Y-101919961D01*
X151366745Y-101850379D01*
X151391457Y-101785596D01*
X151399673Y-101774633D01*
X151405615Y-101766705D01*
X151456745Y-101630316D01*
X151463500Y-101568134D01*
X151463500Y-99871866D01*
X151456745Y-99809684D01*
X151405615Y-99673295D01*
X151400229Y-99666108D01*
X151395921Y-99658240D01*
X151399177Y-99656457D01*
X151380505Y-99606316D01*
X151395633Y-99536950D01*
X151445862Y-99486774D01*
X151516991Y-99472464D01*
X151517014Y-99472008D01*
X151518804Y-99472099D01*
X151519045Y-99472051D01*
X151520225Y-99472172D01*
X151520228Y-99472172D01*
X151523428Y-99472500D01*
X152057572Y-99472500D01*
X152060818Y-99472163D01*
X152060822Y-99472163D01*
X152094603Y-99468658D01*
X152158982Y-99461978D01*
X152319849Y-99408308D01*
X152464055Y-99319071D01*
X152583864Y-99199053D01*
X152672849Y-99054692D01*
X152680747Y-99030882D01*
X152724072Y-98900262D01*
X152724072Y-98900260D01*
X152726238Y-98893731D01*
X152734413Y-98813943D01*
X152761254Y-98748216D01*
X152819369Y-98707434D01*
X152890307Y-98704546D01*
X152922757Y-98717667D01*
G37*
%TD.AperFunction*%
%TA.AperFunction,Conductor*%
G36*
X152368621Y-72873502D02*
G01*
X152415114Y-72927158D01*
X152426500Y-72979500D01*
X152426500Y-97430366D01*
X152406498Y-97498487D01*
X152352842Y-97544980D01*
X152282568Y-97555084D01*
X152260833Y-97549959D01*
X152164265Y-97517929D01*
X152164263Y-97517929D01*
X152157731Y-97515762D01*
X152057572Y-97505500D01*
X151523428Y-97505500D01*
X151520182Y-97505837D01*
X151520178Y-97505837D01*
X151486397Y-97509342D01*
X151422018Y-97516022D01*
X151261151Y-97569692D01*
X151116945Y-97658929D01*
X151092113Y-97683805D01*
X151029832Y-97717884D01*
X150959012Y-97712882D01*
X150913922Y-97683960D01*
X150893233Y-97663307D01*
X150888053Y-97658136D01*
X150743692Y-97569151D01*
X150685831Y-97549959D01*
X150589262Y-97517928D01*
X150589260Y-97517928D01*
X150582731Y-97515762D01*
X150482572Y-97505500D01*
X149948428Y-97505500D01*
X149945182Y-97505837D01*
X149945178Y-97505837D01*
X149911397Y-97509342D01*
X149847018Y-97516022D01*
X149770376Y-97541592D01*
X149699427Y-97544178D01*
X149638343Y-97507994D01*
X149606518Y-97444530D01*
X149604500Y-97422069D01*
X149604500Y-84136266D01*
X149605027Y-84125082D01*
X149606701Y-84117594D01*
X149604562Y-84049535D01*
X149604500Y-84045578D01*
X149604500Y-84017647D01*
X149603994Y-84013641D01*
X149603061Y-84001795D01*
X149601922Y-83965540D01*
X149601673Y-83957613D01*
X149596022Y-83938161D01*
X149592014Y-83918809D01*
X149590468Y-83906571D01*
X149590467Y-83906569D01*
X149589474Y-83898706D01*
X149573194Y-83857589D01*
X149569359Y-83846388D01*
X149557018Y-83803909D01*
X149552985Y-83797090D01*
X149552983Y-83797085D01*
X149546707Y-83786474D01*
X149538010Y-83768724D01*
X149530552Y-83749886D01*
X149525890Y-83743469D01*
X149522073Y-83736526D01*
X149523861Y-83735543D01*
X149504639Y-83676384D01*
X149503504Y-83676503D01*
X149502943Y-83671165D01*
X149483542Y-83486575D01*
X149424527Y-83304947D01*
X149386885Y-83239750D01*
X149370148Y-83170758D01*
X149386886Y-83113752D01*
X149421223Y-83054279D01*
X149421224Y-83054278D01*
X149424527Y-83048556D01*
X149483542Y-82866928D01*
X149503504Y-82677000D01*
X149489814Y-82546745D01*
X149484232Y-82493635D01*
X149484232Y-82493633D01*
X149483542Y-82487072D01*
X149440583Y-82354860D01*
X149426568Y-82311725D01*
X149426567Y-82311724D01*
X149424527Y-82305444D01*
X149421251Y-82299771D01*
X149411819Y-82229423D01*
X149418378Y-82204311D01*
X149433971Y-82162718D01*
X149433973Y-82162711D01*
X149436745Y-82155316D01*
X149443500Y-82093134D01*
X149443500Y-79972067D01*
X149463502Y-79903946D01*
X149517158Y-79857453D01*
X149558517Y-79846547D01*
X149605302Y-79842453D01*
X149605309Y-79842452D01*
X149610793Y-79841972D01*
X149616107Y-79840548D01*
X149616108Y-79840548D01*
X149775935Y-79797723D01*
X149775937Y-79797722D01*
X149781245Y-79796300D01*
X149786227Y-79793977D01*
X149936189Y-79724049D01*
X149936194Y-79724046D01*
X149941176Y-79721723D01*
X150021874Y-79665217D01*
X150081216Y-79623666D01*
X150081219Y-79623664D01*
X150085727Y-79620507D01*
X150210507Y-79495727D01*
X150311723Y-79351176D01*
X150314046Y-79346194D01*
X150314049Y-79346189D01*
X150383977Y-79196227D01*
X150383978Y-79196226D01*
X150386300Y-79191245D01*
X150431972Y-79020793D01*
X150443302Y-78891288D01*
X150444569Y-78881368D01*
X150447770Y-78862344D01*
X150447770Y-78862342D01*
X150448576Y-78857552D01*
X150448729Y-78845000D01*
X150444773Y-78817376D01*
X150443500Y-78799514D01*
X150443500Y-72979500D01*
X150463502Y-72911379D01*
X150517158Y-72864886D01*
X150569500Y-72853500D01*
X152300500Y-72853500D01*
X152368621Y-72873502D01*
G37*
%TD.AperFunction*%
%TA.AperFunction,Conductor*%
G36*
X143545065Y-82463216D02*
G01*
X143588295Y-82495615D01*
X143596704Y-82498767D01*
X143596705Y-82498768D01*
X143672595Y-82527218D01*
X143729360Y-82569859D01*
X143754060Y-82636421D01*
X143737487Y-82708197D01*
X143728973Y-82722944D01*
X143669958Y-82904572D01*
X143649996Y-83094500D01*
X143650686Y-83101065D01*
X143665263Y-83239753D01*
X143669958Y-83284428D01*
X143728973Y-83466056D01*
X143732276Y-83471778D01*
X143732277Y-83471779D01*
X143737195Y-83480297D01*
X143824460Y-83631444D01*
X143828878Y-83636351D01*
X143828879Y-83636352D01*
X143947825Y-83768455D01*
X143952247Y-83773366D01*
X144106748Y-83885618D01*
X144112776Y-83888302D01*
X144112778Y-83888303D01*
X144203377Y-83928640D01*
X144281212Y-83963294D01*
X144374613Y-83983147D01*
X144461556Y-84001628D01*
X144461561Y-84001628D01*
X144468013Y-84003000D01*
X144528500Y-84003000D01*
X144596621Y-84023002D01*
X144643114Y-84076658D01*
X144654500Y-84129000D01*
X144654500Y-97082926D01*
X144634498Y-97151047D01*
X144617595Y-97172021D01*
X144312386Y-97477230D01*
X144250074Y-97511256D01*
X144210449Y-97513479D01*
X144132572Y-97505500D01*
X143598428Y-97505500D01*
X143595182Y-97505837D01*
X143595178Y-97505837D01*
X143503869Y-97515311D01*
X143503868Y-97515311D01*
X143497018Y-97516022D01*
X143494472Y-97516871D01*
X143425286Y-97511817D01*
X143368516Y-97469183D01*
X143343807Y-97402625D01*
X143343500Y-97393829D01*
X143343500Y-82564042D01*
X143363502Y-82495921D01*
X143417158Y-82449428D01*
X143487432Y-82439324D01*
X143545065Y-82463216D01*
G37*
%TD.AperFunction*%
%TA.AperFunction,Conductor*%
G36*
X147908012Y-84278250D02*
G01*
X147919134Y-84289162D01*
X147978747Y-84355369D01*
X148133248Y-84467621D01*
X148139274Y-84470304D01*
X148139281Y-84470308D01*
X148262748Y-84525278D01*
X148316844Y-84571258D01*
X148337500Y-84640385D01*
X148337500Y-95868000D01*
X148317498Y-95936121D01*
X148263842Y-95982614D01*
X148243926Y-95986946D01*
X148244498Y-95988896D01*
X148211876Y-95998475D01*
X148210671Y-95999865D01*
X148209000Y-96007548D01*
X148209000Y-97030000D01*
X148188998Y-97098121D01*
X148135342Y-97144614D01*
X148083000Y-97156000D01*
X147827000Y-97156000D01*
X147758879Y-97135998D01*
X147712386Y-97082342D01*
X147701000Y-97030000D01*
X147701000Y-95999326D01*
X147699500Y-95988892D01*
X147699500Y-84373474D01*
X147719502Y-84305353D01*
X147773158Y-84258860D01*
X147843432Y-84248756D01*
X147908012Y-84278250D01*
G37*
%TD.AperFunction*%
%TD*%
%TA.AperFunction,NonConductor*%
G36*
X147668621Y-79873502D02*
G01*
X147715114Y-79927158D01*
X147726500Y-79979500D01*
X147726500Y-81911221D01*
X147706498Y-81979342D01*
X147652842Y-82025835D01*
X147582568Y-82035939D01*
X147520184Y-82008305D01*
X147497406Y-81989461D01*
X147488627Y-81981472D01*
X147280405Y-81773250D01*
X147246379Y-81710938D01*
X147243500Y-81684155D01*
X147243500Y-79979500D01*
X147263502Y-79911379D01*
X147317158Y-79864886D01*
X147369500Y-79853500D01*
X147600500Y-79853500D01*
X147668621Y-79873502D01*
G37*
%TD.AperFunction*%
%TA.AperFunction,NonConductor*%
G36*
X144364532Y-101010538D02*
G01*
X144421368Y-101053085D01*
X144446179Y-101119605D01*
X144446500Y-101128594D01*
X144446500Y-101568134D01*
X144453255Y-101630316D01*
X144504385Y-101766705D01*
X144509770Y-101773890D01*
X144509771Y-101773892D01*
X144562640Y-101844435D01*
X144587488Y-101910942D01*
X144572435Y-101980324D01*
X144562640Y-101995565D01*
X144537683Y-102028865D01*
X144480824Y-102071380D01*
X144410005Y-102076406D01*
X144359216Y-102050357D01*
X144358489Y-102051358D01*
X144209330Y-101942987D01*
X144209329Y-101942986D01*
X144203988Y-101939106D01*
X144197960Y-101936422D01*
X144197958Y-101936421D01*
X144035555Y-101864115D01*
X144035554Y-101864115D01*
X144029524Y-101861430D01*
X143936123Y-101841577D01*
X143849180Y-101823096D01*
X143849175Y-101823096D01*
X143842723Y-101821724D01*
X143753370Y-101821724D01*
X143685249Y-101801722D01*
X143638756Y-101748066D01*
X143628652Y-101677792D01*
X143658146Y-101613212D01*
X143664275Y-101606629D01*
X144231405Y-101039499D01*
X144293717Y-101005473D01*
X144364532Y-101010538D01*
G37*
%TD.AperFunction*%
%TA.AperFunction,NonConductor*%
G36*
X142070748Y-100628034D02*
G01*
X142205677Y-100688108D01*
X142205685Y-100688111D01*
X142211712Y-100690794D01*
X142305112Y-100710647D01*
X142392056Y-100729128D01*
X142392061Y-100729128D01*
X142398513Y-100730500D01*
X142444405Y-100730500D01*
X142512526Y-100750502D01*
X142559019Y-100804158D01*
X142569123Y-100874432D01*
X142539629Y-100939012D01*
X142533500Y-100945595D01*
X142480747Y-100998348D01*
X142472461Y-101005888D01*
X142465982Y-101010000D01*
X142460557Y-101015777D01*
X142419357Y-101059651D01*
X142416602Y-101062493D01*
X142396865Y-101082230D01*
X142394385Y-101085427D01*
X142386682Y-101094447D01*
X142356414Y-101126679D01*
X142352595Y-101133625D01*
X142352593Y-101133628D01*
X142346652Y-101144434D01*
X142335801Y-101160953D01*
X142323386Y-101176959D01*
X142320241Y-101184228D01*
X142320238Y-101184232D01*
X142305826Y-101217537D01*
X142300609Y-101228187D01*
X142279305Y-101266940D01*
X142277334Y-101274615D01*
X142277334Y-101274616D01*
X142274267Y-101286562D01*
X142267863Y-101305266D01*
X142259819Y-101323855D01*
X142258580Y-101331678D01*
X142258577Y-101331688D01*
X142252901Y-101367524D01*
X142250495Y-101379144D01*
X142239500Y-101421970D01*
X142239500Y-101442224D01*
X142237949Y-101461934D01*
X142234780Y-101481943D01*
X142235526Y-101489835D01*
X142238941Y-101525961D01*
X142239500Y-101537819D01*
X142239500Y-105371618D01*
X142219498Y-105439739D01*
X142165842Y-105486232D01*
X142157731Y-105489599D01*
X142134707Y-105498231D01*
X142134704Y-105498232D01*
X142126295Y-105501385D01*
X142095063Y-105524792D01*
X142028560Y-105549639D01*
X141959177Y-105534587D01*
X141908947Y-105484413D01*
X141893500Y-105423965D01*
X141893500Y-100743141D01*
X141913502Y-100675020D01*
X141967158Y-100628527D01*
X142037432Y-100618423D01*
X142070748Y-100628034D01*
G37*
%TD.AperFunction*%
M02*
