  0
SECTION
  2
HEADER
  9
$ANGBASE
  50
0.0
  9
$ANGDIR
  70
1
  9
$MEASUREMENT
  70
0
  0
ENDSEC
  0
SECTION
  2
TABLES
  0
TABLE
  2
LTYPE
  70
4
  0
LTYPE
  5
40F
  2
CONTINUOUS
  70
0
  3
Solid line
  72
65
  73
0
  40
0.0
  0
LTYPE
  5
410
  2
DASHDOT
 70
0
  3
Dash Dot ____ _ ____ _
 72
65
 73
4
 40
2.0
 49
1.25
 49
-0.25
 49
0.25
 49
-0.25
  0
LTYPE
  5
411
  2
DASHED
 70
0
  3
Dashed __ __ __ __ __
 72
65
 73
2
 40
0.75
 49
0.5
 49
-0.25
  0
LTYPE
  5
43B
  2
DOTTED
 70
0
  3
Dotted .  .  .  .
 72
65
 73
2
 40
0.2
 49
0.0
 49
-0.2
  0
ENDTAB
  0
TABLE
  2
STYLE
  70
4
  0
STYLE
  2
KICAD
  70
0
  40
0
  41
1
  42
1
  50
0
  71
0
  3
isocp.shx
  0
STYLE
  2
KICADB
  70
0
  40
0
  41
1
  42
1
  50
0
  71
0
  3
isocp.shx
  0
STYLE
  2
KICADI
  70
0
  40
0
  41
1
  42
1
  50
15
  71
0
  3
isocp.shx
  0
STYLE
  2
KICADBI
  70
0
  40
0
  41
1
  42
1
  50
15
  71
0
  3
isocp.shx
  0
ENDTAB
  0
TABLE
  2
LAYER
  70
1
  0
LAYER
  2
BLACK
  70
0
  62
7
  6
CONTINUOUS
  0
ENDTAB
  0
ENDSEC
  0
SECTION
  2
ENTITIES
0
LINE
8
BLACK
6
CONTINUOUS
10
5.60213
20
-3.92213
11
5.61787
21
-3.93787
0
LINE
8
BLACK
6
CONTINUOUS
10
5.61787
20
-3.92213
11
5.60213
21
-3.93787
0
LINE
8
BLACK
6
CONTINUOUS
10
5.65147
20
-4.03662
11
5.66721
21
-4.05237
0
LINE
8
BLACK
6
CONTINUOUS
10
5.66721
20
-4.03662
11
5.65147
21
-4.05237
0
LINE
8
BLACK
6
CONTINUOUS
10
5.65612
20
-3.86965
11
5.67187
21
-3.88539
0
LINE
8
BLACK
6
CONTINUOUS
10
5.67187
20
-3.86965
11
5.65612
21
-3.88539
0
LINE
8
BLACK
6
CONTINUOUS
10
5.66713
20
-3.80213
11
5.68287
21
-3.81787
0
LINE
8
BLACK
6
CONTINUOUS
10
5.68287
20
-3.80213
11
5.66713
21
-3.81787
0
LINE
8
BLACK
6
CONTINUOUS
10
5.66713
20
-4.12713
11
5.68287
21
-4.14287
0
LINE
8
BLACK
6
CONTINUOUS
10
5.68287
20
-4.12713
11
5.66713
21
-4.14287
0
LINE
8
BLACK
6
CONTINUOUS
10
5.6836
20
-3.26356
11
5.69935
21
-3.27931
0
LINE
8
BLACK
6
CONTINUOUS
10
5.69935
20
-3.26356
11
5.6836
21
-3.27931
0
LINE
8
BLACK
6
CONTINUOUS
10
5.71213
20
-3.17713
11
5.72787
21
-3.19287
0
LINE
8
BLACK
6
CONTINUOUS
10
5.72787
20
-3.17713
11
5.71213
21
-3.19287
0
LINE
8
BLACK
6
CONTINUOUS
10
5.71713
20
-3.86965
11
5.73287
21
-3.88539
0
LINE
8
BLACK
6
CONTINUOUS
10
5.73287
20
-3.86965
11
5.71713
21
-3.88539
0
LINE
8
BLACK
6
CONTINUOUS
10
5.74213
20
-3.24713
11
5.75787
21
-3.26287
0
LINE
8
BLACK
6
CONTINUOUS
10
5.75787
20
-3.24713
11
5.74213
21
-3.26287
0
LINE
8
BLACK
6
CONTINUOUS
10
5.76213
20
-4.09317
11
5.77787
21
-4.10892
0
LINE
8
BLACK
6
CONTINUOUS
10
5.77787
20
-4.09317
11
5.76213
21
-4.10892
0
LINE
8
BLACK
6
CONTINUOUS
10
5.81713
20
-3.76713
11
5.83287
21
-3.78287
0
LINE
8
BLACK
6
CONTINUOUS
10
5.83287
20
-3.76713
11
5.81713
21
-3.78287
0
LINE
8
BLACK
6
CONTINUOUS
10
5.81713
20
-4.06516
11
5.83287
21
-4.08091
0
LINE
8
BLACK
6
CONTINUOUS
10
5.83287
20
-4.06516
11
5.81713
21
-4.08091
0
LINE
8
BLACK
6
CONTINUOUS
10
5.81713
20
-4.24213
11
5.83287
21
-4.25787
0
LINE
8
BLACK
6
CONTINUOUS
10
5.83287
20
-4.24213
11
5.81713
21
-4.25787
0
LINE
8
BLACK
6
CONTINUOUS
10
5.81837
20
-3.87089
11
5.83411
21
-3.88663
0
LINE
8
BLACK
6
CONTINUOUS
10
5.83411
20
-3.87089
11
5.81837
21
-3.88663
0
LINE
8
BLACK
6
CONTINUOUS
10
5.84213
20
-3.24713
11
5.85787
21
-3.26287
0
LINE
8
BLACK
6
CONTINUOUS
10
5.85787
20
-3.24713
11
5.84213
21
-3.26287
0
LINE
8
BLACK
6
CONTINUOUS
10
5.84213
20
-3.28648
11
5.85787
21
-3.30222
0
LINE
8
BLACK
6
CONTINUOUS
10
5.85787
20
-3.28648
11
5.84213
21
-3.30222
0
LINE
8
BLACK
6
CONTINUOUS
10
5.90713
20
-3.86965
11
5.92287
21
-3.88539
0
LINE
8
BLACK
6
CONTINUOUS
10
5.92287
20
-3.86965
11
5.90713
21
-3.88539
0
LINE
8
BLACK
6
CONTINUOUS
10
5.91213
20
-3.80213
11
5.92787
21
-3.81787
0
LINE
8
BLACK
6
CONTINUOUS
10
5.92787
20
-3.80213
11
5.91213
21
-3.81787
0
LINE
8
BLACK
6
CONTINUOUS
10
5.91713
20
-4.24213
11
5.93287
21
-4.25787
0
LINE
8
BLACK
6
CONTINUOUS
10
5.93287
20
-4.24213
11
5.91713
21
-4.25787
0
LINE
8
BLACK
6
CONTINUOUS
10
5.93213
20
-4.12213
11
5.94787
21
-4.13787
0
LINE
8
BLACK
6
CONTINUOUS
10
5.94787
20
-4.12213
11
5.93213
21
-4.13787
0
LINE
8
BLACK
6
CONTINUOUS
10
5.96813
20
-3.86965
11
5.98388
21
-3.88539
0
LINE
8
BLACK
6
CONTINUOUS
10
5.98388
20
-3.86965
11
5.96813
21
-3.88539
0
LINE
8
BLACK
6
CONTINUOUS
10
5.98121
20
-4.03472
11
5.99696
21
-4.05046
0
LINE
8
BLACK
6
CONTINUOUS
10
5.99696
20
-4.03472
11
5.98121
21
-4.05046
0
LINE
8
BLACK
6
CONTINUOUS
10
6.01705
20
-4.2422
11
6.0328
21
-4.25795
0
LINE
8
BLACK
6
CONTINUOUS
10
6.0328
20
-4.2422
11
6.01705
21
-4.25795
0
LINE
8
BLACK
6
CONTINUOUS
10
6.02713
20
-3.90713
11
6.04287
21
-3.92287
0
LINE
8
BLACK
6
CONTINUOUS
10
6.04287
20
-3.90713
11
6.02713
21
-3.92287
0
LINE
8
BLACK
6
CONTINUOUS
10
5.66481
20
-4.46948
11
5.66481
21
-4.39074
0
LINE
8
BLACK
6
CONTINUOUS
10
5.66481
20
-4.39074
11
5.68356
21
-4.39074
0
LINE
8
BLACK
6
CONTINUOUS
10
5.68356
20
-4.39074
11
5.69481
21
-4.39449
0
LINE
8
BLACK
6
CONTINUOUS
10
5.69481
20
-4.39449
11
5.70231
21
-4.40199
0
LINE
8
BLACK
6
CONTINUOUS
10
5.70231
20
-4.40199
11
5.70606
21
-4.40949
0
LINE
8
BLACK
6
CONTINUOUS
10
5.70606
20
-4.40949
11
5.70981
21
-4.42448
0
LINE
8
BLACK
6
CONTINUOUS
10
5.70981
20
-4.42448
11
5.70981
21
-4.43573
0
LINE
8
BLACK
6
CONTINUOUS
10
5.70981
20
-4.43573
11
5.70606
21
-4.45073
0
LINE
8
BLACK
6
CONTINUOUS
10
5.70606
20
-4.45073
11
5.70231
21
-4.45823
0
LINE
8
BLACK
6
CONTINUOUS
10
5.70231
20
-4.45823
11
5.69481
21
-4.46573
0
LINE
8
BLACK
6
CONTINUOUS
10
5.69481
20
-4.46573
11
5.68356
21
-4.46948
0
LINE
8
BLACK
6
CONTINUOUS
10
5.68356
20
-4.46948
11
5.66481
21
-4.46948
0
LINE
8
BLACK
6
CONTINUOUS
10
5.74355
20
-4.46948
11
5.74355
21
-4.41699
0
LINE
8
BLACK
6
CONTINUOUS
10
5.74355
20
-4.43198
11
5.7473
21
-4.42448
0
LINE
8
BLACK
6
CONTINUOUS
10
5.7473
20
-4.42448
11
5.75105
21
-4.42073
0
LINE
8
BLACK
6
CONTINUOUS
10
5.75105
20
-4.42073
11
5.75855
21
-4.41699
0
LINE
8
BLACK
6
CONTINUOUS
10
5.75855
20
-4.41699
11
5.76605
21
-4.41699
0
LINE
8
BLACK
6
CONTINUOUS
10
5.79229
20
-4.46948
11
5.79229
21
-4.41699
0
LINE
8
BLACK
6
CONTINUOUS
10
5.79229
20
-4.39074
11
5.78855
21
-4.39449
0
LINE
8
BLACK
6
CONTINUOUS
10
5.78855
20
-4.39449
11
5.79229
21
-4.39824
0
LINE
8
BLACK
6
CONTINUOUS
10
5.79229
20
-4.39824
11
5.79604
21
-4.39449
0
LINE
8
BLACK
6
CONTINUOUS
10
5.79604
20
-4.39449
11
5.79229
21
-4.39074
0
LINE
8
BLACK
6
CONTINUOUS
10
5.79229
20
-4.39074
11
5.79229
21
-4.39824
0
LINE
8
BLACK
6
CONTINUOUS
10
5.84104
20
-4.46948
11
5.83354
21
-4.46573
0
LINE
8
BLACK
6
CONTINUOUS
10
5.83354
20
-4.46573
11
5.82979
21
-4.45823
0
LINE
8
BLACK
6
CONTINUOUS
10
5.82979
20
-4.45823
11
5.82979
21
-4.39074
0
LINE
8
BLACK
6
CONTINUOUS
10
5.88228
20
-4.46948
11
5.87478
21
-4.46573
0
LINE
8
BLACK
6
CONTINUOUS
10
5.87478
20
-4.46573
11
5.87103
21
-4.45823
0
LINE
8
BLACK
6
CONTINUOUS
10
5.87103
20
-4.45823
11
5.87103
21
-4.39074
0
LINE
8
BLACK
6
CONTINUOUS
10
5.97227
20
-4.46948
11
5.97227
21
-4.39074
0
LINE
8
BLACK
6
CONTINUOUS
10
5.97227
20
-4.39074
11
5.99852
21
-4.44698
0
LINE
8
BLACK
6
CONTINUOUS
10
5.99852
20
-4.44698
11
6.02477
21
-4.39074
0
LINE
8
BLACK
6
CONTINUOUS
10
6.02477
20
-4.39074
11
6.02477
21
-4.46948
0
LINE
8
BLACK
6
CONTINUOUS
10
6.09601
20
-4.46948
11
6.09601
21
-4.42823
0
LINE
8
BLACK
6
CONTINUOUS
10
6.09601
20
-4.42823
11
6.09226
21
-4.42073
0
LINE
8
BLACK
6
CONTINUOUS
10
6.09226
20
-4.42073
11
6.08476
21
-4.41699
0
LINE
8
BLACK
6
CONTINUOUS
10
6.08476
20
-4.41699
11
6.06976
21
-4.41699
0
LINE
8
BLACK
6
CONTINUOUS
10
6.06976
20
-4.41699
11
6.06226
21
-4.42073
0
LINE
8
BLACK
6
CONTINUOUS
10
6.09601
20
-4.46573
11
6.08851
21
-4.46948
0
LINE
8
BLACK
6
CONTINUOUS
10
6.08851
20
-4.46948
11
6.06976
21
-4.46948
0
LINE
8
BLACK
6
CONTINUOUS
10
6.06976
20
-4.46948
11
6.06226
21
-4.46573
0
LINE
8
BLACK
6
CONTINUOUS
10
6.06226
20
-4.46573
11
6.05851
21
-4.45823
0
LINE
8
BLACK
6
CONTINUOUS
10
6.05851
20
-4.45823
11
6.05851
21
-4.45073
0
LINE
8
BLACK
6
CONTINUOUS
10
6.05851
20
-4.45073
11
6.06226
21
-4.44323
0
LINE
8
BLACK
6
CONTINUOUS
10
6.06226
20
-4.44323
11
6.06976
21
-4.43948
0
LINE
8
BLACK
6
CONTINUOUS
10
6.06976
20
-4.43948
11
6.08851
21
-4.43948
0
LINE
8
BLACK
6
CONTINUOUS
10
6.08851
20
-4.43948
11
6.09601
21
-4.43573
0
LINE
8
BLACK
6
CONTINUOUS
10
6.1335
20
-4.41699
11
6.1335
21
-4.49573
0
LINE
8
BLACK
6
CONTINUOUS
10
6.1335
20
-4.42073
11
6.141
21
-4.41699
0
LINE
8
BLACK
6
CONTINUOUS
10
6.141
20
-4.41699
11
6.156
21
-4.41699
0
LINE
8
BLACK
6
CONTINUOUS
10
6.156
20
-4.41699
11
6.1635
21
-4.42073
0
LINE
8
BLACK
6
CONTINUOUS
10
6.1635
20
-4.42073
11
6.16725
21
-4.42448
0
LINE
8
BLACK
6
CONTINUOUS
10
6.16725
20
-4.42448
11
6.171
21
-4.43198
0
LINE
8
BLACK
6
CONTINUOUS
10
6.171
20
-4.43198
11
6.171
21
-4.45448
0
LINE
8
BLACK
6
CONTINUOUS
10
6.171
20
-4.45448
11
6.16725
21
-4.46198
0
LINE
8
BLACK
6
CONTINUOUS
10
6.16725
20
-4.46198
11
6.1635
21
-4.46573
0
LINE
8
BLACK
6
CONTINUOUS
10
6.1635
20
-4.46573
11
6.156
21
-4.46948
0
LINE
8
BLACK
6
CONTINUOUS
10
6.156
20
-4.46948
11
6.141
21
-4.46948
0
LINE
8
BLACK
6
CONTINUOUS
10
6.141
20
-4.46948
11
6.1335
21
-4.46573
0
LINE
8
BLACK
6
CONTINUOUS
10
6.20474
20
-4.46198
11
6.20849
21
-4.46573
0
LINE
8
BLACK
6
CONTINUOUS
10
6.20849
20
-4.46573
11
6.20474
21
-4.46948
0
LINE
8
BLACK
6
CONTINUOUS
10
6.20474
20
-4.46948
11
6.20099
21
-4.46573
0
LINE
8
BLACK
6
CONTINUOUS
10
6.20099
20
-4.46573
11
6.20474
21
-4.46198
0
LINE
8
BLACK
6
CONTINUOUS
10
6.20474
20
-4.46198
11
6.20474
21
-4.46948
0
LINE
8
BLACK
6
CONTINUOUS
10
6.20474
20
-4.42073
11
6.20849
21
-4.42448
0
LINE
8
BLACK
6
CONTINUOUS
10
6.20849
20
-4.42448
11
6.20474
21
-4.42823
0
LINE
8
BLACK
6
CONTINUOUS
10
6.20474
20
-4.42823
11
6.20099
21
-4.42448
0
LINE
8
BLACK
6
CONTINUOUS
10
6.20099
20
-4.42448
11
6.20474
21
-4.42073
0
LINE
8
BLACK
6
CONTINUOUS
10
6.20474
20
-4.42073
11
6.20474
21
-4.42823
0
LINE
8
BLACK
6
CONTINUOUS
10
5.54764
20
-4.59134
11
5.56339
21
-4.60709
0
LINE
8
BLACK
6
CONTINUOUS
10
5.56339
20
-4.59134
11
5.54764
21
-4.60709
0
LINE
8
BLACK
6
CONTINUOUS
10
5.67981
20
-4.55609
11
5.68731
21
-4.55609
0
LINE
8
BLACK
6
CONTINUOUS
10
5.68731
20
-4.55609
11
5.69481
21
-4.55984
0
LINE
8
BLACK
6
CONTINUOUS
10
5.69481
20
-4.55984
11
5.69856
21
-4.56359
0
LINE
8
BLACK
6
CONTINUOUS
10
5.69856
20
-4.56359
11
5.70231
21
-4.57109
0
LINE
8
BLACK
6
CONTINUOUS
10
5.70231
20
-4.57109
11
5.70606
21
-4.58609
0
LINE
8
BLACK
6
CONTINUOUS
10
5.70606
20
-4.58609
11
5.70606
21
-4.60484
0
LINE
8
BLACK
6
CONTINUOUS
10
5.70606
20
-4.60484
11
5.70231
21
-4.61984
0
LINE
8
BLACK
6
CONTINUOUS
10
5.70231
20
-4.61984
11
5.69856
21
-4.62733
0
LINE
8
BLACK
6
CONTINUOUS
10
5.69856
20
-4.62733
11
5.69481
21
-4.63108
0
LINE
8
BLACK
6
CONTINUOUS
10
5.69481
20
-4.63108
11
5.68731
21
-4.63483
0
LINE
8
BLACK
6
CONTINUOUS
10
5.68731
20
-4.63483
11
5.67981
21
-4.63483
0
LINE
8
BLACK
6
CONTINUOUS
10
5.67981
20
-4.63483
11
5.67231
21
-4.63108
0
LINE
8
BLACK
6
CONTINUOUS
10
5.67231
20
-4.63108
11
5.66856
21
-4.62733
0
LINE
8
BLACK
6
CONTINUOUS
10
5.66856
20
-4.62733
11
5.66481
21
-4.61984
0
LINE
8
BLACK
6
CONTINUOUS
10
5.66481
20
-4.61984
11
5.66106
21
-4.60484
0
LINE
8
BLACK
6
CONTINUOUS
10
5.66106
20
-4.60484
11
5.66106
21
-4.58609
0
LINE
8
BLACK
6
CONTINUOUS
10
5.66106
20
-4.58609
11
5.66481
21
-4.57109
0
LINE
8
BLACK
6
CONTINUOUS
10
5.66481
20
-4.57109
11
5.66856
21
-4.56359
0
LINE
8
BLACK
6
CONTINUOUS
10
5.66856
20
-4.56359
11
5.67231
21
-4.55984
0
LINE
8
BLACK
6
CONTINUOUS
10
5.67231
20
-4.55984
11
5.67981
21
-4.55609
0
LINE
8
BLACK
6
CONTINUOUS
10
5.7398
20
-4.62733
11
5.74355
21
-4.63108
0
LINE
8
BLACK
6
CONTINUOUS
10
5.74355
20
-4.63108
11
5.7398
21
-4.63483
0
LINE
8
BLACK
6
CONTINUOUS
10
5.7398
20
-4.63483
11
5.73605
21
-4.63108
0
LINE
8
BLACK
6
CONTINUOUS
10
5.73605
20
-4.63108
11
5.7398
21
-4.62733
0
LINE
8
BLACK
6
CONTINUOUS
10
5.7398
20
-4.62733
11
5.7398
21
-4.63483
0
LINE
8
BLACK
6
CONTINUOUS
10
5.81104
20
-4.58234
11
5.81104
21
-4.63483
0
LINE
8
BLACK
6
CONTINUOUS
10
5.79229
20
-4.55234
11
5.77355
21
-4.60859
0
LINE
8
BLACK
6
CONTINUOUS
10
5.77355
20
-4.60859
11
5.82229
21
-4.60859
0
LINE
8
BLACK
6
CONTINUOUS
10
5.86729
20
-4.55609
11
5.87478
21
-4.55609
0
LINE
8
BLACK
6
CONTINUOUS
10
5.87478
20
-4.55609
11
5.88228
21
-4.55984
0
LINE
8
BLACK
6
CONTINUOUS
10
5.88228
20
-4.55984
11
5.88603
21
-4.56359
0
LINE
8
BLACK
6
CONTINUOUS
10
5.88603
20
-4.56359
11
5.88978
21
-4.57109
0
LINE
8
BLACK
6
CONTINUOUS
10
5.88978
20
-4.57109
11
5.89353
21
-4.58609
0
LINE
8
BLACK
6
CONTINUOUS
10
5.89353
20
-4.58609
11
5.89353
21
-4.60484
0
LINE
8
BLACK
6
CONTINUOUS
10
5.89353
20
-4.60484
11
5.88978
21
-4.61984
0
LINE
8
BLACK
6
CONTINUOUS
10
5.88978
20
-4.61984
11
5.88603
21
-4.62733
0
LINE
8
BLACK
6
CONTINUOUS
10
5.88603
20
-4.62733
11
5.88228
21
-4.63108
0
LINE
8
BLACK
6
CONTINUOUS
10
5.88228
20
-4.63108
11
5.87478
21
-4.63483
0
LINE
8
BLACK
6
CONTINUOUS
10
5.87478
20
-4.63483
11
5.86729
21
-4.63483
0
LINE
8
BLACK
6
CONTINUOUS
10
5.86729
20
-4.63483
11
5.85979
21
-4.63108
0
LINE
8
BLACK
6
CONTINUOUS
10
5.85979
20
-4.63108
11
5.85604
21
-4.62733
0
LINE
8
BLACK
6
CONTINUOUS
10
5.85604
20
-4.62733
11
5.85229
21
-4.61984
0
LINE
8
BLACK
6
CONTINUOUS
10
5.85229
20
-4.61984
11
5.84854
21
-4.60484
0
LINE
8
BLACK
6
CONTINUOUS
10
5.84854
20
-4.60484
11
5.84854
21
-4.58609
0
LINE
8
BLACK
6
CONTINUOUS
10
5.84854
20
-4.58609
11
5.85229
21
-4.57109
0
LINE
8
BLACK
6
CONTINUOUS
10
5.85229
20
-4.57109
11
5.85604
21
-4.56359
0
LINE
8
BLACK
6
CONTINUOUS
10
5.85604
20
-4.56359
11
5.85979
21
-4.55984
0
LINE
8
BLACK
6
CONTINUOUS
10
5.85979
20
-4.55984
11
5.86729
21
-4.55609
0
LINE
8
BLACK
6
CONTINUOUS
10
5.94228
20
-4.55609
11
5.94977
21
-4.55609
0
LINE
8
BLACK
6
CONTINUOUS
10
5.94977
20
-4.55609
11
5.95727
21
-4.55984
0
LINE
8
BLACK
6
CONTINUOUS
10
5.95727
20
-4.55984
11
5.96102
21
-4.56359
0
LINE
8
BLACK
6
CONTINUOUS
10
5.96102
20
-4.56359
11
5.96477
21
-4.57109
0
LINE
8
BLACK
6
CONTINUOUS
10
5.96477
20
-4.57109
11
5.96852
21
-4.58609
0
LINE
8
BLACK
6
CONTINUOUS
10
5.96852
20
-4.58609
11
5.96852
21
-4.60484
0
LINE
8
BLACK
6
CONTINUOUS
10
5.96852
20
-4.60484
11
5.96477
21
-4.61984
0
LINE
8
BLACK
6
CONTINUOUS
10
5.96477
20
-4.61984
11
5.96102
21
-4.62733
0
LINE
8
BLACK
6
CONTINUOUS
10
5.96102
20
-4.62733
11
5.95727
21
-4.63108
0
LINE
8
BLACK
6
CONTINUOUS
10
5.95727
20
-4.63108
11
5.94977
21
-4.63483
0
LINE
8
BLACK
6
CONTINUOUS
10
5.94977
20
-4.63483
11
5.94228
21
-4.63483
0
LINE
8
BLACK
6
CONTINUOUS
10
5.94228
20
-4.63483
11
5.93478
21
-4.63108
0
LINE
8
BLACK
6
CONTINUOUS
10
5.93478
20
-4.63108
11
5.93103
21
-4.62733
0
LINE
8
BLACK
6
CONTINUOUS
10
5.93103
20
-4.62733
11
5.92728
21
-4.61984
0
LINE
8
BLACK
6
CONTINUOUS
10
5.92728
20
-4.61984
11
5.92353
21
-4.60484
0
LINE
8
BLACK
6
CONTINUOUS
10
5.92353
20
-4.60484
11
5.92353
21
-4.58609
0
LINE
8
BLACK
6
CONTINUOUS
10
5.92353
20
-4.58609
11
5.92728
21
-4.57109
0
LINE
8
BLACK
6
CONTINUOUS
10
5.92728
20
-4.57109
11
5.93103
21
-4.56359
0
LINE
8
BLACK
6
CONTINUOUS
10
5.93103
20
-4.56359
11
5.93478
21
-4.55984
0
LINE
8
BLACK
6
CONTINUOUS
10
5.93478
20
-4.55984
11
5.94228
21
-4.55609
0
LINE
8
BLACK
6
CONTINUOUS
10
6.00227
20
-4.63483
11
6.00227
21
-4.58234
0
LINE
8
BLACK
6
CONTINUOUS
10
6.00227
20
-4.58984
11
6.00602
21
-4.58609
0
LINE
8
BLACK
6
CONTINUOUS
10
6.00602
20
-4.58609
11
6.01352
21
-4.58234
0
LINE
8
BLACK
6
CONTINUOUS
10
6.01352
20
-4.58234
11
6.02477
21
-4.58234
0
LINE
8
BLACK
6
CONTINUOUS
10
6.02477
20
-4.58234
11
6.03226
21
-4.58609
0
LINE
8
BLACK
6
CONTINUOUS
10
6.03226
20
-4.58609
11
6.03601
21
-4.59359
0
LINE
8
BLACK
6
CONTINUOUS
10
6.03601
20
-4.59359
11
6.03601
21
-4.63483
0
LINE
8
BLACK
6
CONTINUOUS
10
6.03601
20
-4.59359
11
6.03976
21
-4.58609
0
LINE
8
BLACK
6
CONTINUOUS
10
6.03976
20
-4.58609
11
6.04726
21
-4.58234
0
LINE
8
BLACK
6
CONTINUOUS
10
6.04726
20
-4.58234
11
6.05851
21
-4.58234
0
LINE
8
BLACK
6
CONTINUOUS
10
6.05851
20
-4.58234
11
6.06601
21
-4.58609
0
LINE
8
BLACK
6
CONTINUOUS
10
6.06601
20
-4.58609
11
6.06976
21
-4.59359
0
LINE
8
BLACK
6
CONTINUOUS
10
6.06976
20
-4.59359
11
6.06976
21
-4.63483
0
LINE
8
BLACK
6
CONTINUOUS
10
6.10726
20
-4.63483
11
6.10726
21
-4.58234
0
LINE
8
BLACK
6
CONTINUOUS
10
6.10726
20
-4.58984
11
6.111
21
-4.58609
0
LINE
8
BLACK
6
CONTINUOUS
10
6.111
20
-4.58609
11
6.1185
21
-4.58234
0
LINE
8
BLACK
6
CONTINUOUS
10
6.1185
20
-4.58234
11
6.12975
21
-4.58234
0
LINE
8
BLACK
6
CONTINUOUS
10
6.12975
20
-4.58234
11
6.13725
21
-4.58609
0
LINE
8
BLACK
6
CONTINUOUS
10
6.13725
20
-4.58609
11
6.141
21
-4.59359
0
LINE
8
BLACK
6
CONTINUOUS
10
6.141
20
-4.59359
11
6.141
21
-4.63483
0
LINE
8
BLACK
6
CONTINUOUS
10
6.141
20
-4.59359
11
6.14475
21
-4.58609
0
LINE
8
BLACK
6
CONTINUOUS
10
6.14475
20
-4.58609
11
6.15225
21
-4.58234
0
LINE
8
BLACK
6
CONTINUOUS
10
6.15225
20
-4.58234
11
6.1635
21
-4.58234
0
LINE
8
BLACK
6
CONTINUOUS
10
6.1635
20
-4.58234
11
6.171
21
-4.58609
0
LINE
8
BLACK
6
CONTINUOUS
10
6.171
20
-4.58609
11
6.17475
21
-4.59359
0
LINE
8
BLACK
6
CONTINUOUS
10
6.17475
20
-4.59359
11
6.17475
21
-4.63483
0
LINE
8
BLACK
6
CONTINUOUS
10
6.32848
20
-4.55234
11
6.26099
21
-4.65358
0
LINE
8
BLACK
6
CONTINUOUS
10
6.42971
20
-4.55609
11
6.43721
21
-4.55609
0
LINE
8
BLACK
6
CONTINUOUS
10
6.43721
20
-4.55609
11
6.44471
21
-4.55984
0
LINE
8
BLACK
6
CONTINUOUS
10
6.44471
20
-4.55984
11
6.44846
21
-4.56359
0
LINE
8
BLACK
6
CONTINUOUS
10
6.44846
20
-4.56359
11
6.45221
21
-4.57109
0
LINE
8
BLACK
6
CONTINUOUS
10
6.45221
20
-4.57109
11
6.45596
21
-4.58609
0
LINE
8
BLACK
6
CONTINUOUS
10
6.45596
20
-4.58609
11
6.45596
21
-4.60484
0
LINE
8
BLACK
6
CONTINUOUS
10
6.45596
20
-4.60484
11
6.45221
21
-4.61984
0
LINE
8
BLACK
6
CONTINUOUS
10
6.45221
20
-4.61984
11
6.44846
21
-4.62733
0
LINE
8
BLACK
6
CONTINUOUS
10
6.44846
20
-4.62733
11
6.44471
21
-4.63108
0
LINE
8
BLACK
6
CONTINUOUS
10
6.44471
20
-4.63108
11
6.43721
21
-4.63483
0
LINE
8
BLACK
6
CONTINUOUS
10
6.43721
20
-4.63483
11
6.42971
21
-4.63483
0
LINE
8
BLACK
6
CONTINUOUS
10
6.42971
20
-4.63483
11
6.42222
21
-4.63108
0
LINE
8
BLACK
6
CONTINUOUS
10
6.42222
20
-4.63108
11
6.41847
21
-4.62733
0
LINE
8
BLACK
6
CONTINUOUS
10
6.41847
20
-4.62733
11
6.41472
21
-4.61984
0
LINE
8
BLACK
6
CONTINUOUS
10
6.41472
20
-4.61984
11
6.41097
21
-4.60484
0
LINE
8
BLACK
6
CONTINUOUS
10
6.41097
20
-4.60484
11
6.41097
21
-4.58609
0
LINE
8
BLACK
6
CONTINUOUS
10
6.41097
20
-4.58609
11
6.41472
21
-4.57109
0
LINE
8
BLACK
6
CONTINUOUS
10
6.41472
20
-4.57109
11
6.41847
21
-4.56359
0
LINE
8
BLACK
6
CONTINUOUS
10
6.41847
20
-4.56359
11
6.42222
21
-4.55984
0
LINE
8
BLACK
6
CONTINUOUS
10
6.42222
20
-4.55984
11
6.42971
21
-4.55609
0
LINE
8
BLACK
6
CONTINUOUS
10
6.48971
20
-4.62733
11
6.49346
21
-4.63108
0
LINE
8
BLACK
6
CONTINUOUS
10
6.49346
20
-4.63108
11
6.48971
21
-4.63483
0
LINE
8
BLACK
6
CONTINUOUS
10
6.48971
20
-4.63483
11
6.48596
21
-4.63108
0
LINE
8
BLACK
6
CONTINUOUS
10
6.48596
20
-4.63108
11
6.48971
21
-4.62733
0
LINE
8
BLACK
6
CONTINUOUS
10
6.48971
20
-4.62733
11
6.48971
21
-4.63483
0
LINE
8
BLACK
6
CONTINUOUS
10
6.5422
20
-4.55609
11
6.5497
21
-4.55609
0
LINE
8
BLACK
6
CONTINUOUS
10
6.5497
20
-4.55609
11
6.5572
21
-4.55984
0
LINE
8
BLACK
6
CONTINUOUS
10
6.5572
20
-4.55984
11
6.56095
21
-4.56359
0
LINE
8
BLACK
6
CONTINUOUS
10
6.56095
20
-4.56359
11
6.5647
21
-4.57109
0
LINE
8
BLACK
6
CONTINUOUS
10
6.5647
20
-4.57109
11
6.56845
21
-4.58609
0
LINE
8
BLACK
6
CONTINUOUS
10
6.56845
20
-4.58609
11
6.56845
21
-4.60484
0
LINE
8
BLACK
6
CONTINUOUS
10
6.56845
20
-4.60484
11
6.5647
21
-4.61984
0
LINE
8
BLACK
6
CONTINUOUS
10
6.5647
20
-4.61984
11
6.56095
21
-4.62733
0
LINE
8
BLACK
6
CONTINUOUS
10
6.56095
20
-4.62733
11
6.5572
21
-4.63108
0
LINE
8
BLACK
6
CONTINUOUS
10
6.5572
20
-4.63108
11
6.5497
21
-4.63483
0
LINE
8
BLACK
6
CONTINUOUS
10
6.5497
20
-4.63483
11
6.5422
21
-4.63483
0
LINE
8
BLACK
6
CONTINUOUS
10
6.5422
20
-4.63483
11
6.5347
21
-4.63108
0
LINE
8
BLACK
6
CONTINUOUS
10
6.5347
20
-4.63108
11
6.53095
21
-4.62733
0
LINE
8
BLACK
6
CONTINUOUS
10
6.53095
20
-4.62733
11
6.5272
21
-4.61984
0
LINE
8
BLACK
6
CONTINUOUS
10
6.5272
20
-4.61984
11
6.52345
21
-4.60484
0
LINE
8
BLACK
6
CONTINUOUS
10
6.52345
20
-4.60484
11
6.52345
21
-4.58609
0
LINE
8
BLACK
6
CONTINUOUS
10
6.52345
20
-4.58609
11
6.5272
21
-4.57109
0
LINE
8
BLACK
6
CONTINUOUS
10
6.5272
20
-4.57109
11
6.53095
21
-4.56359
0
LINE
8
BLACK
6
CONTINUOUS
10
6.53095
20
-4.56359
11
6.5347
21
-4.55984
0
LINE
8
BLACK
6
CONTINUOUS
10
6.5347
20
-4.55984
11
6.5422
21
-4.55609
0
LINE
8
BLACK
6
CONTINUOUS
10
6.64344
20
-4.63483
11
6.59844
21
-4.63483
0
LINE
8
BLACK
6
CONTINUOUS
10
6.62094
20
-4.63483
11
6.62094
21
-4.55609
0
LINE
8
BLACK
6
CONTINUOUS
10
6.62094
20
-4.55609
11
6.61344
21
-4.56734
0
LINE
8
BLACK
6
CONTINUOUS
10
6.61344
20
-4.56734
11
6.60594
21
-4.57484
0
LINE
8
BLACK
6
CONTINUOUS
10
6.60594
20
-4.57484
11
6.59844
21
-4.57859
0
LINE
8
BLACK
6
CONTINUOUS
10
6.71468
20
-4.55609
11
6.67718
21
-4.55609
0
LINE
8
BLACK
6
CONTINUOUS
10
6.67718
20
-4.55609
11
6.67343
21
-4.59359
0
LINE
8
BLACK
6
CONTINUOUS
10
6.67343
20
-4.59359
11
6.67718
21
-4.58984
0
LINE
8
BLACK
6
CONTINUOUS
10
6.67718
20
-4.58984
11
6.68468
21
-4.58609
0
LINE
8
BLACK
6
CONTINUOUS
10
6.68468
20
-4.58609
11
6.70343
21
-4.58609
0
LINE
8
BLACK
6
CONTINUOUS
10
6.70343
20
-4.58609
11
6.71093
21
-4.58984
0
LINE
8
BLACK
6
CONTINUOUS
10
6.71093
20
-4.58984
11
6.71468
21
-4.59359
0
LINE
8
BLACK
6
CONTINUOUS
10
6.71468
20
-4.59359
11
6.71843
21
-4.60109
0
LINE
8
BLACK
6
CONTINUOUS
10
6.71843
20
-4.60109
11
6.71843
21
-4.61984
0
LINE
8
BLACK
6
CONTINUOUS
10
6.71843
20
-4.61984
11
6.71468
21
-4.62733
0
LINE
8
BLACK
6
CONTINUOUS
10
6.71468
20
-4.62733
11
6.71093
21
-4.63108
0
LINE
8
BLACK
6
CONTINUOUS
10
6.71093
20
-4.63108
11
6.70343
21
-4.63483
0
LINE
8
BLACK
6
CONTINUOUS
10
6.70343
20
-4.63483
11
6.68468
21
-4.63483
0
LINE
8
BLACK
6
CONTINUOUS
10
6.68468
20
-4.63483
11
6.67718
21
-4.63108
0
LINE
8
BLACK
6
CONTINUOUS
10
6.67718
20
-4.63108
11
6.67343
21
-4.62733
0
LINE
8
BLACK
6
CONTINUOUS
10
6.74468
20
-4.55609
11
6.79717
21
-4.55609
0
LINE
8
BLACK
6
CONTINUOUS
10
6.79717
20
-4.55609
11
6.76342
21
-4.63483
0
LINE
8
BLACK
6
CONTINUOUS
10
6.82342
20
-4.55609
11
6.82342
21
-4.57109
0
LINE
8
BLACK
6
CONTINUOUS
10
6.85341
20
-4.55609
11
6.85341
21
-4.57109
0
LINE
8
BLACK
6
CONTINUOUS
10
6.96965
20
-4.66483
11
6.9659
21
-4.66108
0
LINE
8
BLACK
6
CONTINUOUS
10
6.9659
20
-4.66108
11
6.9584
21
-4.64983
0
LINE
8
BLACK
6
CONTINUOUS
10
6.9584
20
-4.64983
11
6.95465
21
-4.64233
0
LINE
8
BLACK
6
CONTINUOUS
10
6.95465
20
-4.64233
11
6.9509
21
-4.63108
0
LINE
8
BLACK
6
CONTINUOUS
10
6.9509
20
-4.63108
11
6.94715
21
-4.61234
0
LINE
8
BLACK
6
CONTINUOUS
10
6.94715
20
-4.61234
11
6.94715
21
-4.59734
0
LINE
8
BLACK
6
CONTINUOUS
10
6.94715
20
-4.59734
11
6.9509
21
-4.57859
0
LINE
8
BLACK
6
CONTINUOUS
10
6.9509
20
-4.57859
11
6.95465
21
-4.56734
0
LINE
8
BLACK
6
CONTINUOUS
10
6.95465
20
-4.56734
11
6.9584
21
-4.55984
0
LINE
8
BLACK
6
CONTINUOUS
10
6.9584
20
-4.55984
11
6.9659
21
-4.54859
0
LINE
8
BLACK
6
CONTINUOUS
10
6.9659
20
-4.54859
11
6.96965
21
-4.54484
0
LINE
8
BLACK
6
CONTINUOUS
10
6.99589
20
-4.56359
11
6.99964
21
-4.55984
0
LINE
8
BLACK
6
CONTINUOUS
10
6.99964
20
-4.55984
11
7.00714
21
-4.55609
0
LINE
8
BLACK
6
CONTINUOUS
10
7.00714
20
-4.55609
11
7.02589
21
-4.55609
0
LINE
8
BLACK
6
CONTINUOUS
10
7.02589
20
-4.55609
11
7.03339
21
-4.55984
0
LINE
8
BLACK
6
CONTINUOUS
10
7.03339
20
-4.55984
11
7.03714
21
-4.56359
0
LINE
8
BLACK
6
CONTINUOUS
10
7.03714
20
-4.56359
11
7.04089
21
-4.57109
0
LINE
8
BLACK
6
CONTINUOUS
10
7.04089
20
-4.57109
11
7.04089
21
-4.57859
0
LINE
8
BLACK
6
CONTINUOUS
10
7.04089
20
-4.57859
11
7.03714
21
-4.58984
0
LINE
8
BLACK
6
CONTINUOUS
10
7.03714
20
-4.58984
11
6.99214
21
-4.63483
0
LINE
8
BLACK
6
CONTINUOUS
10
6.99214
20
-4.63483
11
7.04089
21
-4.63483
0
LINE
8
BLACK
6
CONTINUOUS
10
7.10838
20
-4.58234
11
7.10838
21
-4.63483
0
LINE
8
BLACK
6
CONTINUOUS
10
7.08963
20
-4.55234
11
7.07088
21
-4.60859
0
LINE
8
BLACK
6
CONTINUOUS
10
7.07088
20
-4.60859
11
7.11963
21
-4.60859
0
LINE
8
BLACK
6
CONTINUOUS
10
7.20962
20
-4.63483
11
7.20962
21
-4.55609
0
LINE
8
BLACK
6
CONTINUOUS
10
7.24336
20
-4.63483
11
7.24336
21
-4.59359
0
LINE
8
BLACK
6
CONTINUOUS
10
7.24336
20
-4.59359
11
7.23961
21
-4.58609
0
LINE
8
BLACK
6
CONTINUOUS
10
7.23961
20
-4.58609
11
7.23211
21
-4.58234
0
LINE
8
BLACK
6
CONTINUOUS
10
7.23211
20
-4.58234
11
7.22087
21
-4.58234
0
LINE
8
BLACK
6
CONTINUOUS
10
7.22087
20
-4.58234
11
7.21337
21
-4.58609
0
LINE
8
BLACK
6
CONTINUOUS
10
7.21337
20
-4.58609
11
7.20962
21
-4.58984
0
LINE
8
BLACK
6
CONTINUOUS
10
7.29211
20
-4.63483
11
7.28461
21
-4.63108
0
LINE
8
BLACK
6
CONTINUOUS
10
7.28461
20
-4.63108
11
7.28086
21
-4.62733
0
LINE
8
BLACK
6
CONTINUOUS
10
7.28086
20
-4.62733
11
7.27711
21
-4.61984
0
LINE
8
BLACK
6
CONTINUOUS
10
7.27711
20
-4.61984
11
7.27711
21
-4.59734
0
LINE
8
BLACK
6
CONTINUOUS
10
7.27711
20
-4.59734
11
7.28086
21
-4.58984
0
LINE
8
BLACK
6
CONTINUOUS
10
7.28086
20
-4.58984
11
7.28461
21
-4.58609
0
LINE
8
BLACK
6
CONTINUOUS
10
7.28461
20
-4.58609
11
7.29211
21
-4.58234
0
LINE
8
BLACK
6
CONTINUOUS
10
7.29211
20
-4.58234
11
7.30336
21
-4.58234
0
LINE
8
BLACK
6
CONTINUOUS
10
7.30336
20
-4.58234
11
7.31085
21
-4.58609
0
LINE
8
BLACK
6
CONTINUOUS
10
7.31085
20
-4.58609
11
7.3146
21
-4.58984
0
LINE
8
BLACK
6
CONTINUOUS
10
7.3146
20
-4.58984
11
7.31835
21
-4.59734
0
LINE
8
BLACK
6
CONTINUOUS
10
7.31835
20
-4.59734
11
7.31835
21
-4.61984
0
LINE
8
BLACK
6
CONTINUOUS
10
7.31835
20
-4.61984
11
7.3146
21
-4.62733
0
LINE
8
BLACK
6
CONTINUOUS
10
7.3146
20
-4.62733
11
7.31085
21
-4.63108
0
LINE
8
BLACK
6
CONTINUOUS
10
7.31085
20
-4.63108
11
7.30336
21
-4.63483
0
LINE
8
BLACK
6
CONTINUOUS
10
7.30336
20
-4.63483
11
7.29211
21
-4.63483
0
LINE
8
BLACK
6
CONTINUOUS
10
7.36335
20
-4.63483
11
7.35585
21
-4.63108
0
LINE
8
BLACK
6
CONTINUOUS
10
7.35585
20
-4.63108
11
7.3521
21
-4.62358
0
LINE
8
BLACK
6
CONTINUOUS
10
7.3521
20
-4.62358
11
7.3521
21
-4.55609
0
LINE
8
BLACK
6
CONTINUOUS
10
7.42334
20
-4.63108
11
7.41584
21
-4.63483
0
LINE
8
BLACK
6
CONTINUOUS
10
7.41584
20
-4.63483
11
7.40084
21
-4.63483
0
LINE
8
BLACK
6
CONTINUOUS
10
7.40084
20
-4.63483
11
7.39334
21
-4.63108
0
LINE
8
BLACK
6
CONTINUOUS
10
7.39334
20
-4.63108
11
7.3896
21
-4.62358
0
LINE
8
BLACK
6
CONTINUOUS
10
7.3896
20
-4.62358
11
7.3896
21
-4.59359
0
LINE
8
BLACK
6
CONTINUOUS
10
7.3896
20
-4.59359
11
7.39334
21
-4.58609
0
LINE
8
BLACK
6
CONTINUOUS
10
7.39334
20
-4.58609
11
7.40084
21
-4.58234
0
LINE
8
BLACK
6
CONTINUOUS
10
7.40084
20
-4.58234
11
7.41584
21
-4.58234
0
LINE
8
BLACK
6
CONTINUOUS
10
7.41584
20
-4.58234
11
7.42334
21
-4.58609
0
LINE
8
BLACK
6
CONTINUOUS
10
7.42334
20
-4.58609
11
7.42709
21
-4.59359
0
LINE
8
BLACK
6
CONTINUOUS
10
7.42709
20
-4.59359
11
7.42709
21
-4.60109
0
LINE
8
BLACK
6
CONTINUOUS
10
7.42709
20
-4.60109
11
7.3896
21
-4.60859
0
LINE
8
BLACK
6
CONTINUOUS
10
7.45709
20
-4.63108
11
7.46459
21
-4.63483
0
LINE
8
BLACK
6
CONTINUOUS
10
7.46459
20
-4.63483
11
7.47958
21
-4.63483
0
LINE
8
BLACK
6
CONTINUOUS
10
7.47958
20
-4.63483
11
7.48708
21
-4.63108
0
LINE
8
BLACK
6
CONTINUOUS
10
7.48708
20
-4.63108
11
7.49083
21
-4.62358
0
LINE
8
BLACK
6
CONTINUOUS
10
7.49083
20
-4.62358
11
7.49083
21
-4.61984
0
LINE
8
BLACK
6
CONTINUOUS
10
7.49083
20
-4.61984
11
7.48708
21
-4.61234
0
LINE
8
BLACK
6
CONTINUOUS
10
7.48708
20
-4.61234
11
7.47958
21
-4.60859
0
LINE
8
BLACK
6
CONTINUOUS
10
7.47958
20
-4.60859
11
7.46834
21
-4.60859
0
LINE
8
BLACK
6
CONTINUOUS
10
7.46834
20
-4.60859
11
7.46084
21
-4.60484
0
LINE
8
BLACK
6
CONTINUOUS
10
7.46084
20
-4.60484
11
7.45709
21
-4.59734
0
LINE
8
BLACK
6
CONTINUOUS
10
7.45709
20
-4.59734
11
7.45709
21
-4.59359
0
LINE
8
BLACK
6
CONTINUOUS
10
7.45709
20
-4.59359
11
7.46084
21
-4.58609
0
LINE
8
BLACK
6
CONTINUOUS
10
7.46084
20
-4.58609
11
7.46834
21
-4.58234
0
LINE
8
BLACK
6
CONTINUOUS
10
7.46834
20
-4.58234
11
7.47958
21
-4.58234
0
LINE
8
BLACK
6
CONTINUOUS
10
7.47958
20
-4.58234
11
7.48708
21
-4.58609
0
LINE
8
BLACK
6
CONTINUOUS
10
7.51708
20
-4.66483
11
7.52083
21
-4.66108
0
LINE
8
BLACK
6
CONTINUOUS
10
7.52083
20
-4.66108
11
7.52833
21
-4.64983
0
LINE
8
BLACK
6
CONTINUOUS
10
7.52833
20
-4.64983
11
7.53208
21
-4.64233
0
LINE
8
BLACK
6
CONTINUOUS
10
7.53208
20
-4.64233
11
7.53583
21
-4.63108
0
LINE
8
BLACK
6
CONTINUOUS
10
7.53583
20
-4.63108
11
7.53958
21
-4.61234
0
LINE
8
BLACK
6
CONTINUOUS
10
7.53958
20
-4.61234
11
7.53958
21
-4.59734
0
LINE
8
BLACK
6
CONTINUOUS
10
7.53958
20
-4.59734
11
7.53583
21
-4.57859
0
LINE
8
BLACK
6
CONTINUOUS
10
7.53583
20
-4.57859
11
7.53208
21
-4.56734
0
LINE
8
BLACK
6
CONTINUOUS
10
7.53208
20
-4.56734
11
7.52833
21
-4.55984
0
LINE
8
BLACK
6
CONTINUOUS
10
7.52833
20
-4.55984
11
7.52083
21
-4.54859
0
LINE
8
BLACK
6
CONTINUOUS
10
7.52083
20
-4.54859
11
7.51708
21
-4.54484
  0
ENDSEC
  0
EOF
