%TF.GenerationSoftware,KiCad,Pcbnew,(6.0.8-1)-1*%
%TF.CreationDate,2022-10-18T13:45:01-04:00*%
%TF.ProjectId,SWD_pogoadapter,5357445f-706f-4676-9f61-646170746572,rev?*%
%TF.SameCoordinates,Original*%
%TF.FileFunction,Drillmap*%
%TF.FilePolarity,Positive*%
%FSLAX45Y45*%
G04 Gerber Fmt 4.5, Leading zero omitted, Abs format (unit mm)*
G04 Created by KiCad (PCBNEW (6.0.8-1)-1) date 2022-10-18 13:45:01*
%MOMM*%
%LPD*%
G01*
G04 APERTURE LIST*
%ADD10C,0.200000*%
G04 APERTURE END LIST*
D10*
X14388619Y-11352476D02*
X14388619Y-11152476D01*
X14436238Y-11152476D01*
X14464809Y-11162000D01*
X14483857Y-11181048D01*
X14493381Y-11200095D01*
X14502905Y-11238190D01*
X14502905Y-11266762D01*
X14493381Y-11304857D01*
X14483857Y-11323905D01*
X14464809Y-11342952D01*
X14436238Y-11352476D01*
X14388619Y-11352476D01*
X14588619Y-11352476D02*
X14588619Y-11219143D01*
X14588619Y-11257238D02*
X14598143Y-11238190D01*
X14607667Y-11228667D01*
X14626714Y-11219143D01*
X14645762Y-11219143D01*
X14712428Y-11352476D02*
X14712428Y-11219143D01*
X14712428Y-11152476D02*
X14702905Y-11162000D01*
X14712428Y-11171524D01*
X14721952Y-11162000D01*
X14712428Y-11152476D01*
X14712428Y-11171524D01*
X14836238Y-11352476D02*
X14817190Y-11342952D01*
X14807667Y-11323905D01*
X14807667Y-11152476D01*
X14941000Y-11352476D02*
X14921952Y-11342952D01*
X14912428Y-11323905D01*
X14912428Y-11152476D01*
X15169571Y-11352476D02*
X15169571Y-11152476D01*
X15236238Y-11295333D01*
X15302905Y-11152476D01*
X15302905Y-11352476D01*
X15483857Y-11352476D02*
X15483857Y-11247714D01*
X15474333Y-11228667D01*
X15455286Y-11219143D01*
X15417190Y-11219143D01*
X15398143Y-11228667D01*
X15483857Y-11342952D02*
X15464809Y-11352476D01*
X15417190Y-11352476D01*
X15398143Y-11342952D01*
X15388619Y-11323905D01*
X15388619Y-11304857D01*
X15398143Y-11285809D01*
X15417190Y-11276286D01*
X15464809Y-11276286D01*
X15483857Y-11266762D01*
X15579095Y-11219143D02*
X15579095Y-11419143D01*
X15579095Y-11228667D02*
X15598143Y-11219143D01*
X15636238Y-11219143D01*
X15655286Y-11228667D01*
X15664809Y-11238190D01*
X15674333Y-11257238D01*
X15674333Y-11314381D01*
X15664809Y-11333428D01*
X15655286Y-11342952D01*
X15636238Y-11352476D01*
X15598143Y-11352476D01*
X15579095Y-11342952D01*
X15760048Y-11333428D02*
X15769571Y-11342952D01*
X15760048Y-11352476D01*
X15750524Y-11342952D01*
X15760048Y-11333428D01*
X15760048Y-11352476D01*
X15760048Y-11228667D02*
X15769571Y-11238190D01*
X15760048Y-11247714D01*
X15750524Y-11238190D01*
X15760048Y-11228667D01*
X15760048Y-11247714D01*
M02*
