%TF.GenerationSoftware,KiCad,Pcbnew,(6.0.8-1)-1*%
%TF.CreationDate,2022-10-04T12:57:59-04:00*%
%TF.ProjectId,SWD_pogoadapter,5357445f-706f-4676-9f61-646170746572,rev?*%
%TF.SameCoordinates,Original*%
%TF.FileFunction,Legend,Bot*%
%TF.FilePolarity,Positive*%
%FSLAX46Y46*%
G04 Gerber Fmt 4.6, Leading zero omitted, Abs format (unit mm)*
G04 Created by KiCad (PCBNEW (6.0.8-1)-1) date 2022-10-04 12:57:59*
%MOMM*%
%LPD*%
G01*
G04 APERTURE LIST*
%ADD10C,0.300000*%
%ADD11C,0.150000*%
%ADD12C,0.120000*%
G04 APERTURE END LIST*
D10*
%TO.C,G\u002A\u002A\u002A*%
X147646571Y-76581000D02*
X147791714Y-76508428D01*
X148009428Y-76508428D01*
X148227142Y-76581000D01*
X148372285Y-76726142D01*
X148444857Y-76871285D01*
X148517428Y-77161571D01*
X148517428Y-77379285D01*
X148444857Y-77669571D01*
X148372285Y-77814714D01*
X148227142Y-77959857D01*
X148009428Y-78032428D01*
X147864285Y-78032428D01*
X147646571Y-77959857D01*
X147574000Y-77887285D01*
X147574000Y-77379285D01*
X147864285Y-77379285D01*
X146703142Y-76508428D02*
X146703142Y-76871285D01*
X147066000Y-76726142D02*
X146703142Y-76871285D01*
X146340285Y-76726142D01*
X146920857Y-77161571D02*
X146703142Y-76871285D01*
X146485428Y-77161571D01*
X145542000Y-76508428D02*
X145542000Y-76871285D01*
X145904857Y-76726142D02*
X145542000Y-76871285D01*
X145179142Y-76726142D01*
X145759714Y-77161571D02*
X145542000Y-76871285D01*
X145324285Y-77161571D01*
X144380857Y-76508428D02*
X144380857Y-76871285D01*
X144743714Y-76726142D02*
X144380857Y-76871285D01*
X144018000Y-76726142D01*
X144598571Y-77161571D02*
X144380857Y-76871285D01*
X144163142Y-77161571D01*
D11*
%TO.C,C2*%
X148121666Y-100624142D02*
X148169285Y-100671761D01*
X148312142Y-100719380D01*
X148407380Y-100719380D01*
X148550238Y-100671761D01*
X148645476Y-100576523D01*
X148693095Y-100481285D01*
X148740714Y-100290809D01*
X148740714Y-100147952D01*
X148693095Y-99957476D01*
X148645476Y-99862238D01*
X148550238Y-99767000D01*
X148407380Y-99719380D01*
X148312142Y-99719380D01*
X148169285Y-99767000D01*
X148121666Y-99814619D01*
X147740714Y-99814619D02*
X147693095Y-99767000D01*
X147597857Y-99719380D01*
X147359761Y-99719380D01*
X147264523Y-99767000D01*
X147216904Y-99814619D01*
X147169285Y-99909857D01*
X147169285Y-100005095D01*
X147216904Y-100147952D01*
X147788333Y-100719380D01*
X147169285Y-100719380D01*
%TO.C,C1*%
X151423666Y-100624142D02*
X151471285Y-100671761D01*
X151614142Y-100719380D01*
X151709380Y-100719380D01*
X151852238Y-100671761D01*
X151947476Y-100576523D01*
X151995095Y-100481285D01*
X152042714Y-100290809D01*
X152042714Y-100147952D01*
X151995095Y-99957476D01*
X151947476Y-99862238D01*
X151852238Y-99767000D01*
X151709380Y-99719380D01*
X151614142Y-99719380D01*
X151471285Y-99767000D01*
X151423666Y-99814619D01*
X150471285Y-100719380D02*
X151042714Y-100719380D01*
X150757000Y-100719380D02*
X150757000Y-99719380D01*
X150852238Y-99862238D01*
X150947476Y-99957476D01*
X151042714Y-100005095D01*
%TO.C,C3*%
X144819666Y-100624142D02*
X144867285Y-100671761D01*
X145010142Y-100719380D01*
X145105380Y-100719380D01*
X145248238Y-100671761D01*
X145343476Y-100576523D01*
X145391095Y-100481285D01*
X145438714Y-100290809D01*
X145438714Y-100147952D01*
X145391095Y-99957476D01*
X145343476Y-99862238D01*
X145248238Y-99767000D01*
X145105380Y-99719380D01*
X145010142Y-99719380D01*
X144867285Y-99767000D01*
X144819666Y-99814619D01*
X144486333Y-99719380D02*
X143867285Y-99719380D01*
X144200619Y-100100333D01*
X144057761Y-100100333D01*
X143962523Y-100147952D01*
X143914904Y-100195571D01*
X143867285Y-100290809D01*
X143867285Y-100528904D01*
X143914904Y-100624142D01*
X143962523Y-100671761D01*
X144057761Y-100719380D01*
X144343476Y-100719380D01*
X144438714Y-100671761D01*
X144486333Y-100624142D01*
D12*
%TO.C,C2*%
X148465000Y-102820580D02*
X148465000Y-102539420D01*
X147445000Y-102820580D02*
X147445000Y-102539420D01*
%TO.C,C1*%
X151767000Y-102820580D02*
X151767000Y-102539420D01*
X150747000Y-102820580D02*
X150747000Y-102539420D01*
%TO.C,C3*%
X144143000Y-102820580D02*
X144143000Y-102539420D01*
X145163000Y-102820580D02*
X145163000Y-102539420D01*
%TD*%
M02*
