%TF.GenerationSoftware,KiCad,Pcbnew,(6.0.8-1)-1*%
%TF.CreationDate,2022-10-04T12:58:01-04:00*%
%TF.ProjectId,SWD_pogoadapter,5357445f-706f-4676-9f61-646170746572,rev?*%
%TF.SameCoordinates,Original*%
%TF.FileFunction,Profile,NP*%
%FSLAX46Y46*%
G04 Gerber Fmt 4.6, Leading zero omitted, Abs format (unit mm)*
G04 Created by KiCad (PCBNEW (6.0.8-1)-1) date 2022-10-04 12:58:01*
%MOMM*%
%LPD*%
G01*
G04 APERTURE LIST*
%TA.AperFunction,Profile*%
%ADD10C,0.150000*%
%TD*%
G04 APERTURE END LIST*
D10*
%TO.C,J2*%
X142835000Y-97845000D02*
X142835000Y-79845000D01*
X154385000Y-98845000D02*
X154385000Y-109845000D01*
X143335000Y-79345000D02*
X149435000Y-79345000D01*
X149935000Y-78845000D02*
X149935000Y-72845000D01*
X150435000Y-72345000D02*
X152435000Y-72345000D01*
X152935000Y-72845000D02*
X152935000Y-97845000D01*
X141885000Y-98345000D02*
X142335000Y-98345000D01*
X153885000Y-110345000D02*
X141885000Y-110345000D01*
X153435000Y-98345000D02*
X153885000Y-98345000D01*
X141385000Y-109845000D02*
X141385000Y-98845000D01*
X149435000Y-79345000D02*
G75*
G03*
X149935000Y-78845000I0J500000D01*
G01*
X152935000Y-97845000D02*
G75*
G03*
X153435000Y-98345000I500000J0D01*
G01*
X154385000Y-98845000D02*
G75*
G03*
X153885000Y-98345000I-500000J0D01*
G01*
X141885000Y-98345000D02*
G75*
G03*
X141385000Y-98845000I1J-500001D01*
G01*
X152935000Y-72845000D02*
G75*
G03*
X152435000Y-72345000I-500000J0D01*
G01*
X142335000Y-98345000D02*
G75*
G03*
X142835000Y-97845000I-1J500001D01*
G01*
X153885000Y-110345000D02*
G75*
G03*
X154385000Y-109845000I0J500000D01*
G01*
X143335000Y-79345000D02*
G75*
G03*
X142835000Y-79845000I1J-500001D01*
G01*
X150435000Y-72345000D02*
G75*
G03*
X149935000Y-72845000I0J-500000D01*
G01*
X141385000Y-109845000D02*
G75*
G03*
X141885000Y-110345000I500001J1D01*
G01*
%TD*%
M02*
