M48
; DRILL file {KiCad (6.0.8-1)-1} date Tuesday, October 18, 2022 at 01:44:59 PM
; FORMAT={-:-/ absolute / inch / decimal}
; #@! TF.CreationDate,2022-10-18T13:44:59-04:00
; #@! TF.GenerationSoftware,Kicad,Pcbnew,(6.0.8-1)-1
; #@! TF.FileFunction,Plated,1,2,PTH
FMAT,2
INCH
; #@! TA.AperFunction,Plated,PTH,ViaDrill
T1C0.0157
%
G90
G05
T1
X5.61Y-3.93
X5.6593Y-4.0445
X5.664Y-3.8775
X5.675Y-3.81
X5.675Y-4.135
X5.6915Y-3.2714
X5.72Y-3.185
X5.725Y-3.8775
X5.75Y-3.255
X5.77Y-4.101
X5.825Y-3.775
X5.825Y-4.073
X5.825Y-4.25
X5.8262Y-3.8788
X5.85Y-3.255
X5.85Y-3.2944
X5.915Y-3.8775
X5.92Y-3.81
X5.925Y-4.25
X5.94Y-4.13
X5.976Y-3.8775
X5.9891Y-4.0426
X6.0249Y-4.2501
X6.035Y-3.915
T0
M30
